<?xml version="1.0" encoding="utf-8"?>
<!-- Generator: Adobe Adobe Illustrator 24.2.0, SVG Export Plug-In . SVG Version: 6.00 Build 0)  -->
<svg version="1.1" id="Contours" xmlns="http://www.w3.org/2000/svg" xmlns:xlink="http://www.w3.org/1999/xlink" x="0px" y="0px"
	 width="500px" height="289.1px" viewBox="0 0 500 289.1" style="enable-background:new 0 0 500 289.1;" xml:space="preserve">
<path d="M288.9,249.6c-0.2,1.2-0.3,2.4-0.5,3.6c-0.4,1.9-0.9,3.8-1.3,5.7c-0.5,2.3-1,4.6-1.6,6.9c-0.7,2.6-1.5,5.2-2.4,7.8
	c-1.2,3.4-3.2,6.3-5.8,8.7c-1.7,1.6-3.1,3.5-4.6,5.3c-0.5,0.5-1,1-1.6,1.4c-0.1,0.1-0.4,0-0.6-0.2c-0.1-0.1,0-0.4,0-0.5
	c0.5-1.1,0.9-2.3,1.5-3.3c0.8-1.4,1.7-2.6,2.6-3.9c0.2-0.3,0.4-0.6,0.5-0.8c0-0.3-0.3-0.5-0.4-0.8c-0.2,0.2-0.4,0.3-0.6,0.6
	c-0.3,0.4-0.5,0.9-0.8,1.4c-0.9,1.4-1.8,2.7-2.8,4.1c-0.5,0.7-1.2,1.3-1.7,2c-0.2-0.2-0.4-0.3-0.5-0.5c-0.2-1.8,0.4-3.5,1.3-5
	c1.1-1.9,2.3-3.8,3.7-5.5c2.3-3,4.2-6.2,5.2-9.8c0.8-2.9,1.7-5.8,2.3-8.7c0.3-1.4,0.1-2.8,0.3-4.2c0.4-3.2,0.9-6.3,1.5-9.5
	c0.6-3.4,1.4-6.7,2.2-10.1c0.4-1.8,0.9-3.6,1-5.5c0.3-2.9,1.1-5.6,0.6-8.6c-0.2-1.5-0.5-2.9-1.5-3.8c-1.8-1.7-3.9-3-6-4.4
	c-1.1-0.8-2.4-1.3-3.7-1.8c-2.9-1.1-5.4-0.3-7.9,1.4c-3.3,2.4-6.6,4.7-9.9,7c-2.3,1.6-4.6,3-6.9,4.6c-3,2.1-5.8,4.3-8.8,6.4
	c-2.8,1.9-5.6,3.8-8.4,5.7c-2.5,1.7-4.9,3.4-7.3,5c-3.2,2.2-6.5,4.3-9.7,6.5c-1.7,1.2-3.2,2.6-4.8,3.8c-1.2,1-2.5,1.9-3.7,3
	c-0.5,0.4-0.8,1.1-1.3,1.5c-2.6,2.7-5.1,5.6-7.4,8.6c-1.1,1.5-2.8,2.6-4.4,3.6c-1.9,1.2-3.8,2.5-5.9,3c-3.4,0.9-6.1,3.1-9.4,3.9
	c-2.1,0.6-3.8-0.7-4-2.8c-0.2-2.4,1.1-4,2.4-5.8c2.1-2.9,5-4.7,8-6.5c2-1.1,3.8-2.7,5.7-4c1.4-1,2.9-2.1,4.3-3.2
	c2.4-1.9,4.8-3.8,7.2-5.7c2.9-2.4,5.9-4.6,8.7-7.1c2.6-2.3,5-4.9,7.4-7.4c0.9-0.9,1.5-2,2.2-3c1.7-2.2,3.4-4.4,5.1-6.6
	c1.1-1.4,2-2.9,3.1-4.2c3.1-3.7,6.2-7.5,9.5-11.1c2.9-3.1,4.8-6.8,7-10.3c1.1-1.7,1.4-3.9,1.8-5.9c0.8-3.9-1.5-6.8-3.5-9.8
	c-1.8-2.6-3.5-5.3-5.1-8c-2.1-3.6-4.3-7.1-6.3-10.8c-1.8-3.5-3.4-7.2-5-10.9c-0.9-1.9-1.7-3.8-2.6-5.7c-1-2.2-2-4.4-3-6.6
	c-1.5-3.4-4.4-5-7.7-6.1c-2.5-0.9-5-1.8-7.6-2.6c-0.5-0.2-1.1-0.1-1.6-0.1c-3.1,0-6.2-0.3-9-1.6c-3.5-1.6-6.6-3.7-7.3-7.7
	c-0.4-2.2,0.5-4.3,1.8-6.1c1.9-2.7,4.8-4.2,7.2-6.3c2.5-2.2,5.2-4.3,7.8-6.4c1-0.8,2-1.6,3-2.5c1.4-1.3,2.8-2.7,4.2-3.9
	c1.2-1,2.5-1.9,3.6-2.9c2-1.9,3.3-4.3,3.8-7c0.1-0.6-0.8-1.3-0.9-2c-0.4-2.2-0.8-4.3-1.1-6.5c-0.3-2.3-0.4-4.6-0.5-6.9
	c0-0.5,0.2-1,0.4-1.4c0.1-0.2,0.9-0.1,1,0c0.3,0.4,0.5,1,0.6,1.6c0.9,3.5,1.7,7,2.5,10.5c0,0.1,0.1,0.2,0.1,0.4
	c0.2,1,0.2,2.3,1.4,2.3c0.9,0,2.1-0.5,2.8-1.1c0.8-0.7,1.4-1.8,1.8-2.9c0.7-2,2.1-3.2,4.1-3.7c2.5-0.6,5-3.3,5.4-5.9
	c0.3-2,1.1-4,0.9-6c-0.3-2.7,0.6-5.5-0.9-8.1c-0.5-0.9-1.3-1-1.8-0.1c-0.8,1.4-1.7,2.7-1.5,4.5c0.2,1.2-0.1,2.5-0.2,3.8
	c0,0.3-0.2,0.5-0.4,0.8c-0.5-0.3-0.9-0.5-1.4-0.8c0.1-0.2,0.3-0.3,0.4-0.5c0.2-0.5,0.6-1.1,0.6-1.6c0-1.2,0.4-2.6-0.7-3.6
	c-0.2-0.2-0.2-0.8-0.3-1.2c0.3,0.1,0.6,0.2,0.9,0.1c0.5-0.2,1.1-0.4,1.5-0.7c0.4-0.4,0.6-1,0.8-1.6c0.1-0.2,0.1-0.6,0-0.8
	c-0.7-0.9-1.5-1.7-2.3-2.6c-0.5-0.6-0.8-0.3-1,0.3c-0.6,2-0.5,4.1-0.9,6.1c-0.3,1.6,0.5,3.4-0.6,4.9c-0.1,0.1,0,0.4,0.1,0.5
	c0.6,1.2,0.6,2.4,0.1,3.6c-0.1,0.3-0.2,0.5-0.4,0.8c-0.2-0.2-0.7-0.5-0.6-0.7c0.3-2-1.2-3.9-0.1-6c0.6-1.4,0.4-3.1,0.6-4.7
	c0.3-1.7,0.5-3.5,1.1-5.2c0.7-2.2,0.2-4.3-0.9-6c-2.1-3.1-4.4-6.2-7.3-8.7c-3.5-3.1-7-6-10.5-9.2c-1.6-1.5-3-3.3-4.5-4.9
	c-1-1.1-2.1-2-3.1-3.2c-0.9-1-1.6-2-2.3-3.1c-0.1-0.2-0.1-0.5-0.1-0.7c0.3,0,0.6,0,0.8,0.2c1.1,1,2.1,2.1,3.2,3.1
	c0.2,0.2,0.6,0.3,0.8,0.6c0.5,0.5,1,1.2,1.5,1.7c0.3,0.3,0.7,0.5,1,0.8c0.2,0.2,0.3,0.4,0.4,0.7c0.1,0.2,0,0.4,0.1,0.6
	c0.2,0,0.5,0,0.5-0.1c0.1-0.2,0.1-0.5,0-0.6c-0.2-0.4-0.6-0.7-0.8-1.1c-0.1-0.2-0.1-0.5-0.2-0.7c0.3,0,0.7-0.1,0.8,0.1
	c0.6,0.9,1.6,1.5,1.4,2.8c-0.1,0.8,0.2,1.3,0.9,1.6c0.3,0.1,0.6,0.2,0.7,0.5c0.5,0.8,1.1,1.2,2.2,1.2c0.5,0,1,0.5,1.5,0.9
	c0.6,0.4,0.7,0.8,0,1.3c0.2,0.1,0.3,0.3,0.5,0.4c0.5,0.2,1,0.4,1.5,0.7c1,0.5,0.9,0.5,0.5,1.3c-0.1,0.2,0.1,0.6,0.3,0.8
	c1.1,1.1,2.2,2.1,3.2,3.2c1.6,1.7,3.1,3.4,4.6,5.1c0.9,1,1.9,2.1,2.9,3.1c0.4,0.5,0.9,0.9,1.2,1.5c0.5,0.9,1.1,1.5,2.2,1
	c1.4-0.6,1.5,0.5,1.9,1.3c0.1,0.3,0.3,0.6,0.5,1c0.1-0.4,0.3-0.8,0.3-1.2c0-1.3-0.8-1.9-1.8-2.5c-0.1-0.1-0.5,0.2-0.7,0.3
	c-0.1-0.3-0.2-0.5-0.3-0.8c-0.1-0.3-0.3-0.6-0.5-0.8c-1.6-1.8-3.1-3.7-4.7-5.5c-0.8-1-1.7-2-2.5-3c-0.1-0.2-0.3-0.4-0.5-0.5
	c-2-0.9-3-2.9-4.4-4.4c-1-1-2.2-1.9-3.4-2.9c-0.2-0.2-0.5-0.3-0.5-0.6c-0.4-1-1-1.1-1.9-0.8c-0.2,0.1-0.6,0-0.8-0.1
	c-0.2-0.1-0.3-0.5-0.5-0.7c0.2,0.1,0.5,0.2,0.7,0.2c0.3,0,0.6-0.2,0.9-0.2c-0.1-0.2-0.1-0.5-0.2-0.6c-2.3-1.8-4.7-3.6-7-5.5
	c-0.3-0.3-0.6-0.7-0.9-0.9c-0.6-0.4-1.3-0.8-2-1.2c-0.2-0.1-0.4-0.3-0.6-0.5c0.2-0.2,0.5-0.5,0.7-0.5c0.5,0.1,1.1,0.2,1.5,0.5
	c2.7,1.9,5.4,3.8,7.9,5.9c1.5,1.2,2.7,2.9,4.1,4.3c1.3,1.3,2.6,2.6,4.2,3.6c2.1,1.3,3.6,3.2,5,5.1c1.8,2.5,3.2,5.3,5.6,7.4
	c1.6,1.5,3,3.2,4.5,4.8c0.2,0.3,0.5,0.6,0.6,0.9c0.3,1.5,1.3,2.4,2.4,3.2c0.9,0.6,1.8,1.3,2.7,1.9c1.4,1,2.5,0.5,3.3-1
	c1.3-2.6,2.5-5.3,4.6-7.4c0.4-0.4,1.3-0.9,1.5-0.7c0.6,0.5,1.4,1.3,1.4,1.9c-0.1,1.5-0.6,3-1,4.4c-0.4,1.4-0.9,2.7-1.3,4.1
	c-0.2,1,0.3,2.3,1.5,2.7c1.1,0.4,1.6-0.3,2.2-1c1.6-2,2-4.4,2.2-6.8c0.3-2.5,0.1-5.1,0-7.6c0-1-0.5-2-0.5-3.1c0-2.8,0.1-5.5,0.2-8.3
	c0.1-2.8-0.3-5.5-1-8.2c-0.7-2.5-1.1-5.1-1.6-7.7c-0.1-0.7-0.1-1.5,0.1-2.1c0.3-0.7,1-1,1.5-0.1c0.6,1.2,1.3,2.5,1.5,3.8
	c0.4,3,1.5,5.8,2.7,8.5c0.4,0.8,0.5,1.8,0.7,2.7c0,0.2-0.2,0.5-0.4,0.8c-0.2-0.2-0.6-0.3-0.6-0.5c-0.2-0.8-0.2-1.7-0.3-2.5
	c-0.1-0.3-0.3-0.6-0.4-0.9c-0.2,0.4-0.5,0.7-0.6,1.1c-0.1,1,0,2-0.1,3c-0.2,1.1-0.4,2.1,0.4,3.1c0.1,0.2,0.3,0.5,0.2,0.7
	c-0.2,1.2-0.5,2.4-0.8,3.6c0,0.2-0.1,0.5,0,0.6c0.1,0.2,0.2,0.4,0.4,0.6c0.1-0.2,0.3-0.3,0.4-0.5c0.5-1.8,1.6-3.6,1.1-5.6
	c0-0.1,0-0.2-0.1-0.4c-0.1-0.4-0.2-0.8-0.2-1.3c0-0.1,0.4-0.3,0.6-0.4c0.2,0.5,0.6,0.9,0.6,1.4c0,3.1-0.2,6.2-0.2,9.4
	c0,2.1,0,4.3,0.3,6.4c0.5,3.3,0.7,6.5,0,9.9c-0.5,2.5-1.2,4.9-2.6,6.9c-1.1,1.5-0.8,3.1-1.2,4.7c-0.6,2.2-1.1,4.4-1.6,6.5
	c-0.3,1.3,1,3.1,2,2.7c0.7-0.3,1.2-1,1.6-1.7c0.4-0.6,0.6-1.2,0.8-1.9c0.6-1.6,1.2-3.2,1.8-4.7c1.3-2.9,2.6-5.8,3.9-8.7
	c1-2,2.1-3.9,3.2-5.9c0.7-1.3,1.3-2.7,2.1-4c0.2-0.4,0.9-0.6,1.4-0.8c0.1-0.1,0.6,0.3,0.6,0.5c0,0.3-0.3,1-0.4,0.9
	c-1.6-0.2-1.1,1.5-1.9,2.1c-0.5,0.4-0.8,1.3-1.1,2c-0.2,0.6-1,1.1-0.1,1.8c0.1,0.1-0.2,1.1-0.4,1.1c-1.4,0.1-1.1,1.4-1.5,2.1
	c-1,1.7-1.9,3.4-2.8,5.1c-0.2,0.5-0.5,0.9-0.7,1.4c-0.1,0.4-0.1,0.8-0.2,1.3c0.6-0.1,1.4,0,1.8-0.3c0.6-0.6,1.2-1.4,1.5-2.2
	c1.1-2.7,2.1-5.4,3.2-8.1c0.6-1.7,1.2-3.4,1.8-5c0.1-0.3,0.4-0.5,0.7-0.8c0.2,0.4,0.7,1,0.6,1.3c-0.8,2.4-1.7,4.8-2.6,7.2
	c-1.5,3.9-3,7.9-4.8,11.8c-1.1,2.4-2.6,4.5-4.1,6.7c-1.1,1.6-2.2,3.2-3.4,4.7c-1.3,1.6-2.7,3.1-4,4.6c-0.1,0.1-0.1,0.4-0.2,0.6
	c-0.4,0.6-0.8,1.3-1.3,1.8c-1.2,1.1-1.5,2.3-1,3.8c0.3,1,0.7,2.1,0.9,3.1c0.1,0.5-0.1,1.1-0.1,1.7c0.1,2.5,0.1,4.9,0.3,7.4
	c0,0.6,0.2,1.2,0.5,1.7c0.9,1.5,1.8,3.2,3,4.5c1.6,1.7,3.4,3.2,5.3,4.5c3.3,2.3,6.8,4.5,10.3,6.5c1.1,0.6,2.5,0.6,3.8,0.8
	c0.9,0.2,1.7,0.4,2.6,0.4c0.6,0.1,1.2-0.1,1.8-0.1c1.6-0.1,3.2-0.3,4.8-0.3c1,0,2,0.1,3.1,0.2c2,0.1,4,0.1,6.1,0.1
	c0.6,0,1.2,0,1.7,0c2.7,0,5.5-0.3,8.2,0.1c3.7,0.6,7.4,0.8,11.1,0.7c1.4,0,2.7-0.4,4.1-0.6c1.3-0.2,2.7-0.3,4.1-0.4
	c2.5-0.3,4.9-0.7,7.4-1c1.5-0.2,2.9-0.3,4.4-0.6c1.8-0.4,3.6-0.9,5.4-1.4c3.2-0.9,6.5-1.9,9.7-2.7c2.5-0.6,5-1.1,7.4-1.6
	c0.4-0.1,0.8,0.1,1.2,0c1.1-0.1,2.3-0.1,3.4-0.3c3.5-0.5,6.9-1.1,10.4-1.1c2.2,0,4.5-0.7,6.7-1.1c2.6-0.5,5.2-0.9,7.8-1.4
	c1.2-0.2,2.4-0.7,3.6-0.8c2.3-0.2,4.6-0.2,6.8-0.3c2.1-0.1,4.3,0.1,6.4-0.3c2.8-0.5,5.6-1.3,8.2-2.3c4-1.6,7.9-1.5,12-0.7
	c4.1,0.8,7.1,3.3,9.4,6.5c2.8,3.9,4.2,8.3,5,13c0.3,1.9,0.6,3.8,0.5,5.7c-0.1,2.2-0.6,4.4-1,6.6c-0.3,1.5-0.5,3.1-1.1,4.5
	c-0.5,1.2-1.4,2.3-2.1,3.4c-0.4,0.6-0.9,0.3-0.9-0.3c-0.1-1.1-0.2-2.2-0.2-3.3c0-0.2,0.2-0.5,0.2-0.7c0-0.3-0.1-0.6-0.2-0.9
	c-0.2,0.2-0.4,0.5-0.6,0.7c-0.3,0.2-0.8,0.7-0.9,0.6c-0.4-0.4-1.2-1-1.1-1.4c0-0.7,0.7-1.3,1-1.9c0.2-0.3,0.5-0.7,0.4-0.8
	c-0.9-1.2,0.1-2.4,0.2-3.6c0-0.9,0.2-1.8,0.1-2.7c-0.2-1.6,0.2-3.2,0.2-4.7c0-0.9,0-2-0.4-2.8c-1-2.1-2.1-4.2-3.3-6.2
	c-0.3-0.5-1.3-0.8-2-0.8c-0.9,0-2.2-0.4-2.5-1.2c0-0.1,0-0.3,0.1-0.3c0.1,0,0.3,0,0.5,0c0.4,0,0.8,0,1.1-0.1
	c-0.1-0.2-0.1-0.5-0.2-0.5c-0.4-0.2-0.8-0.3-1.2-0.4c-0.5-0.1-1.1,0.1-1.6-0.1c-2.1-0.5-4.1-0.2-6.1,0.5c-0.3,0.1-0.8-0.1-1.1-0.2
	c-0.2-0.1-0.4-0.3-0.5-0.5c0,0.4-0.1,0.7,0,1.1c0.1,0.3,0.3,0.5,0.5,0.7c-0.4,0.1-0.7,0.3-1.1,0.3c-2.7,0-5.5-0.1-8.2,0
	c-2.5,0.1-5,0.9-7.4,0.6c-2-0.2-3.7,0.6-5.6,0.7c-3.4,0.2-6.9,0.7-10.3,1c-1.9,0.2-3.8,0.3-5.7,0.5c-1.6,0.2-3.2,0.4-4.8,0.8
	c-3.7,0.8-7.4,1.7-11.1,2.6c-1.1,0.3-2.1,0.8-3.2,1c-1.6,0.3-3.2,0.6-4.8,0.8c-3.5,0.5-7.1,1.1-10.6,1.6c-1.4,0.2-2.7,0.3-4.1,0.5
	c-0.3,0-0.5,0.3-0.8,0.4c-0.3,0.1-0.6,0.2-0.9,0.3c-2.2,0.3-4.5,0.1-6.7,0.8c-1.4,0.4-2.9,0.6-4.4,0.8c-0.9,0.1-1.9-0.1-2.8,0
	c-0.8,0.1-1.5,0.5-2.2,0.6c-1.7,0.3-3,1.5-4.9,1.5c-2.4,0-4.8,0.5-7.3,0.7c-0.3,0-0.5-0.2-0.8-0.2c-0.4-0.1-0.7-0.2-1.1-0.3
	c-0.8,0-1.5-0.1-2.3,0c-2.2,0.4-4.2-0.7-6.4-0.8c-0.2,0-0.4-0.4-0.6-0.5c-0.4-0.2-0.9-0.3-1.3-0.5c0,0.2,0.1,0.5,0,0.7
	c-0.1,0.2-0.3,0.3-0.5,0.3c-5.4,0.1-10.8,0.2-16.1,0.2c-1.2,0-2.3-0.5-3.5-0.8c-1.9-0.5-3.9-0.9-5.8-1.5c-1.8-0.6-3.4-1.4-5.2-2
	c-0.7-0.3-1.7,0-2.4-0.4c-1-0.6-1.7-1.5-2.6-2.2c-0.6-0.5-1.4-0.8-2.1-1.2c-0.3-0.2-0.6-0.2-0.8-0.5c-2.1-2.1-4.4-4.1-6.3-6.4
	c-1.7-2-3.2-4.2-4.6-6.5c-0.6-1.1-0.8-2.5-0.8-3.8c-0.1-2.6-0.3-5.3,0.1-7.9c0.2-1.7-0.3-2.6-1.4-3.6c-0.5-0.4-0.9-0.9-1.6-0.5
	c-0.1,0.1-0.4-0.1-0.5-0.3c-0.7-1.2-1.2-2.5-2-3.6c-1.8-2.4-1.7-5.5-3-8.1c-0.2-0.4-0.2-1.3,0-1.4c1.5-0.8,0.4-1.7,0.2-2.5
	c0-0.1-0.2-0.2-0.3-0.3c-0.1,0.1-0.2,0.2-0.2,0.4c-0.6,1.8-1.6,3.2-3.5,3.8c-0.3,0.1-0.5,0.3-0.7,0.5c-0.8,0.6-1.6,1.1-2.3,1.8
	c-0.3,0.3-0.6,0.7-0.8,1.1c-0.6,1.7-1.7,2-3.2,0.9c-0.1-0.1-0.3-0.1-0.5-0.1c-1,0.2-2.3,1.6-2.3,2.6c-0.2,2.3-1.2,4.1-3.3,5.3
	c-0.1,0.1-0.2,0.3-0.2,0.4c-0.5,2.1-2,3.4-3.5,4.8c-1.2,1.1-2.5,1.7-4,2.1c-1,0.3-1.2,0-1.1-0.9c0-0.2-0.2-0.5-0.2-0.7
	c-0.1,0.2-0.2,0.5-0.3,0.7c0,0.2,0,0.3,0,0.5c0.1,1.3,0.2,2.6-1.7,2.8c-0.6,0.1-1.1,1-1.7,1.6c-0.2,0.2-0.5,0.6-0.8,0.6
	c-1.9,0.1-3,2-4.8,2.4c-0.5,0.1-1.1,0.9-1.2,1.5c-0.3,1.8-1.9,2.6-2.9,3.8c-0.1,0.1-0.3,0.1-0.4,0.2c0-0.2-0.1-0.3-0.1-0.5
	c0.1-0.4,0.1-0.8,0.4-1c1.1-0.8,0.3-1.4-0.1-2c-0.1-0.1-0.4-0.2-0.5-0.3c0,0.2-0.1,0.4-0.1,0.6c0.4,1.4-0.7,3.3-2,4
	c-0.6,0.3-1.1,0.9-1.5,1.5c-0.3,0.4-0.5,0.9-0.6,1.3c-0.1,0.4-1.1,1.2,0.4,0.8c0.1,0,0.3,0.2,0.4,0.3c1.4,1.7,3.5,2.2,5.4,3.1
	c2.7,1.4,5.7,1.4,8.6,2.1c0.5,0.1,1.1,0.3,1.6,0.3c1,0,1.8,0.1,2.6,0.8c0.8,0.7,1.6,1.2,2.8,1.5c1,0.2,1.7,1.4,2.6,2.2
	c0.1,0.1,0.2,0.3,0.4,0.4c0.3,0.1,0.6,0,0.9,0c-0.1-0.2-0.2-0.4-0.2-0.6c-0.1-0.2-0.2-0.5-0.2-0.7c0.3,0.1,0.7,0.1,0.8,0.3
	c0.4,0.7,0.8,1.5,1.2,2.2c0.4,0.6,0.7,1.3,1.1,1.9c1.3,1.5,2.7,2.8,3.8,4.5c0.8,1.2,1.2,2.8,1.8,4.2c0.2,0.5,0.5,1,0.8,1.5
	c1.4,2.3,1.9,5.1,3.1,7.5c0.7,1.4,1.3,2.9,2,4.4c0.1,0.2,0.3,0.4,0.5,0.4c2.1,0,2,2,2.7,3.1c0.9,1.2,0.8,3.1,2.2,4
	c0.1,0.1,0.2,0.3,0.2,0.4c-0.2,1.5,0.9,2.4,1.5,3.6c0.4,0.8,0.6,1.7,1,2.5c0.9,1.9,1.9,3.8,2.9,5.8c0.9,1.8,1.7,3.6,2.6,5.5
	c0.1,0.3,0.2,0.6,0.4,0.9c0.2,0.2,0.5,0.4,0.8,0.5c0-0.3-0.1-0.5,0-0.8c0-0.2,0.2-0.7,0.2-0.7c0.4,0.1,1.1,0.1,1.2,0.4
	c0.8,1.6,1.6,3.2,2.1,4.9c1.3,4.2-0.6,8-2.1,11.8c-1.1,2.9-2.7,5.6-4.8,8c-1,1.1-2.1,2-3,3.1c-0.4,0.4-0.9,1.1-0.8,1.6
	c0.5,2.6-1.2,4.1-2.7,5.7c-2.2,2.4-4.9,4.5-6.6,7.4c-0.2,0.4-0.5,0.7-0.7,1c-0.5,0.9-1,1.9-2.4,1.1c-0.2-0.1-0.6,0.1-0.9,0.2
	c0.1,0.2,0.2,0.5,0.3,0.5c1.3,0.5,0.7,1.2,0.2,1.8c-0.1,0.2-0.4,0.3-0.5,0.6c-0.1,0.2-0.1,0.4-0.1,0.6c0.2,0,0.4,0,0.5,0
	c0.4-0.2,1-0.4,1.2-0.7c1.6-2,3.5-3.3,5.7-4.5c1.6-0.9,2.9-2.2,4.4-3.3c0.8-0.6,1.8-1,2.4-1.7c2.4-3.1,6.1-4.6,8.9-7.2
	c0.4-0.4,1-0.6,1.4-1c0.7-0.6,1.4-0.6,2.3-0.3c0.6,0.2,1.5,0.2,2-0.1c1.4-0.8,2.8-1.8,4.1-2.8c2.5-1.8,5.1-3.1,8.3-3
	c0.5,0,1-0.1,1.5-0.3c0.8-0.3,1.4-0.2,2.1,0.2c0.5,0.3,1.3,0.1,2,0.1c1.6,0,3.2-0.1,4.7,0.1c0.7,0.1,1.4,0.9,2.1,1.3
	c0.3,0.2,0.7,0.5,1,0.7c4.1,1.8,6.1,5.1,6.9,9.4c0.2,1.3,1,2.5,1.5,3.8c0.1,0.4,0,0.9,0.1,1.3c0,0.7,0,1.4,0.2,2
	c0.4,1.6-0.1,2.9-1.4,3.9c-1.7,1.5-2.6,3.4-2.7,5.7c0,1.3,0.3,2.6,0.5,3.8c0.1,0.7,0.1,1.5,0.3,2.2c0.1,0.4,0.2,0.7,0.4,1
	c0.3-0.2,0.7-0.4,0.9-0.7c1-1.7,1.8-3.5,2.8-5.1c0.8-1.3,1.7-2.5,2.8-3.5c1.2-1.1,1.6-3.7,0.9-5c-0.1-0.3-0.3-0.7-0.2-0.8
	c0.6-0.8,0.5-1.4-0.2-2c0,0,0.3-0.4,0.5-0.5c0.2-0.1,0.5-0.1,0.8-0.1c-0.2-0.3-0.3-0.9-0.5-1c-1.3-0.4-1.1-1.4-1-2.3
	c0.1-0.5,0.2-1,0.5-1.4c0.2-0.3,0.6-0.7,0.9-0.7c0.9,0,1.3-0.7,1.2-1.8c-0.1-0.7,0-1.6,0.4-2.1c1.3-1.6,2.7-3,4.1-4.4
	c1.4-1.5,3-2.6,4.9-3.4c1.2-0.4,2.2-1.3,3.4-1.6c1.5-0.4,3.1-0.8,4.6-0.8c3,0,6.1-0.1,9-1.1c0.9-0.3,2-0.3,3-0.3
	c5.6-0.2,11.1-0.7,16.5-2.3c3.1-0.9,6.2-1.8,9.2-2.7c0.3-0.1,0.6-0.2,0.7-0.5c0.7-0.9,1.6-1.2,2.7-1.1c0.9,0.1,1.5-1,1.1-1.7
	c-0.1-0.2-0.1-0.5-0.1-0.8c0.3,0,0.6-0.1,0.9,0c0.2,0.1,0.3,0.5,0.2,0.7c-0.2,0.6-0.2,0.6,0.4,0.4c1.3-0.3,2.4-0.8,3.4-1.6
	c0.8-0.6,1.9-1.1,2.9-1.1c2.3-0.1,4-1.7,5.9-2.5c2.4-1,4.8-2.1,7.2-3.2c2.1-0.9,4.1-2.1,6.2-2.7c3-0.9,6.1-1.3,9.1-2
	c0.1,0,0.3,0,0.4-0.1c1.9-1.1,3.8-0.8,5.8-0.2c2.5,0.7,4.8,0.2,7-0.8c2.2-1,4.2-2.2,6.4-3.2c1.3-0.6,2.8-0.7,4.2-1.2
	c2.8-0.9,5.5-2,8.3-2.7c2.6-0.6,5-1.8,7.9-1.6c2.9,0.1,4.5,1.5,5.9,3.7c1.2,2,1.4,4.1,1.3,6.2c0,1.8,0.1,3.8-1,5.6
	c-0.5,0.8-0.2,1.6,0.4,2.3c1,1.1,1.7,1.2,2.7,0.1c0.6-0.7,1.1-1.5,1.7-2.2c0.7-0.9,1.3-1.8,2.1-2.5c0.4-0.3,1.2-0.4,1.8-0.2
	c1.4,0.3,2.8,0.7,4.2,1.1c3.4,0.9,5.1,3.8,7.1,6.4c0.3,0.4,0.5,0.9,0.9,1c0.5,0.2,1.3,0.4,1.8,0.3c0.3-0.1,0.7-0.9,0.7-1.3
	c0.1-3.5-1.9-6.1-4.3-8.3c-1-0.9-2-1.8-3.2-2.3c-1.5-0.7-3.1-1.4-4.7-1.5c-2.8-0.3-4.6-1.7-5.9-4c-0.7-1.2-1.8-2.3-2.4-3.6
	c-0.6-1.3-1-2.7-1.3-4.2c-0.5-2-1.6-3.2-3.6-3c-2.8,0.3-5.1-0.9-7.5-2c-1.3-0.6-2.4-1.7-3.2-2.9c-1-1.6-2.2-3.1-2.7-5.1
	c-0.2-1.1-0.1-1.7,0.7-2.3c0.8-0.6,0.8-1.1,0.3-2c-0.6-1-0.8-2.2-1.3-3.2c-0.5-1-1.1-2-1.7-3c-0.1-0.2-0.3-0.4-0.4-0.6
	c0.3-0.1,0.6-0.4,0.8-0.3c0.9,0.4,2.6-0.3,2.6,1.6c0,0.1,0.4,0.3,0.6,0.4c0.2-0.2,0.5-0.5,0.4-0.7c-0.1-0.4-0.3-0.7-0.5-1.1
	c-0.6-1-1.2-2-1.7-3.1c-0.1-0.1,0-0.4,0.1-0.4c0.2-0.1,0.5-0.2,0.6-0.1c2.1,0.9,3.3,2.7,4.1,4.6c0.9,2,1.4,4.1,2,6.2
	c0.3,1,0.5,2.2,1.1,3.1c0.8,1.4,2.5,1.2,3.8,1.5c2.3,0.6,4.6,0.9,6.9,1.4c0.2,0,0.5,0.3,0.7,0.5c0.7,0.9,1.3,1.9,2,2.7
	c1.6,1.6,2,3.5,1.6,5.7c-0.1,0.9,0.8,3.4,1.6,3.6c1.1,0.4,2.3,0.1,3.2-0.6c1.1-1,2.3-1.2,3.8-0.9c2.1,0.4,3.9,1.1,5.1,2.9
	c0.8,1.3,1.2,2.9,1.8,4.3c0.2,0.6,0.3,1.3,0.6,1.9c0.5,0.8,0.2,1-0.6,0.9c-1-0.1-1.4,0.5-1.3,1.4c0,0.2,0.3,0.5,0.5,0.6
	c0.1,0,0.4-0.2,0.6-0.4c0.1-0.1,0.2-0.2,0.3-0.3c0.3-0.2,0.5-0.4,0.8-0.6c0.1,0.3,0.1,0.6,0.2,0.9c0.4,1.8,0.5,3.8,1.4,5.4
	c0.9,1.7,1.5,3.5,2,5.3c0.9,3.4,1.7,6.8,2.6,10.2c0.3,1.3,0.6,2.7,1.1,4c0.7,1.7,1.8,3.4,2.5,5.1c1,2.4,2,4.8,2.9,7.2
	c0.9,2.6,1.5,5.3,2.7,7.8c1.7,3.6,4.4,6.3,8.1,8.1c1.8,0.9,3.9,0.6,5.6,1.8c2,1.4,3.8,2.9,4.6,5.3c1.1,3.3-0.9,5.7-4.3,5.2
	c-2-0.3-4.1-0.6-6.1-1.1c-2.5-0.6-5.2-0.7-7.7-1.7c-2.2-0.9-3.5-2.5-4.9-4c-0.9-1-1.7-2.2-2.4-3.3c-0.4-0.6-0.9-1.3-0.5-2.2
	c0.1-0.3,0-0.9-0.3-1.2c-1.9-2.2-2.4-5-3.3-7.7c-0.8-2.2-1.4-4.4-2.1-6.6c-0.7-2.4-1.3-4.8-2.1-7.1c-0.9-2.5-1.2-5.2-1.9-7.7
	c-0.6-2.1-1.9-4-3-5.9c-0.4-0.8-1-1.5-1.6-2.1c-0.8-0.8-1.5-1.7-2.5-2.2c-2.4-1.2-5-1.2-7.6-0.6c-1,0.2-1.9,0.8-1.7-0.9
	c0-0.1-0.3-0.4-0.3-0.4c-0.8,0.4-1.8,0.7-2.4,1.4c-0.3,0.4-1,1.3,0,2.1c0.3,0.2,0.3,0.9,0.3,1.4c0.2,1.9,0.5,3.9,0.5,5.8
	c0,2.3-0.3,4.6-0.4,6.9c-0.1,0.9,0,1.8-0.1,2.6c-0.2,2.2-0.6,4.4-0.4,6.6c0.2,3,0.7,6,1.6,8.9c0.9,2.8,3.1,4.8,5.4,6.7
	c1.6,1.4,3.1,2.8,3.8,4.9c0.4,1.2,1.2,2.3,1.8,3.4c0.5,0.9,0.2,1.8-0.6,2.2c-0.5,0.2-1.4,0-1.9-0.3c-0.9-0.5-1.8-0.9-3-0.8
	c-3.8,0.2-6.9-1.4-9.8-3.8c-1.9-1.5-3.6-3.2-4.7-5.3c-1.4-2.6-2.8-5.2-2.7-8.3c0.1-2.2-0.2-4.5-0.2-6.7c0-1.1,0.4-2.2,0.5-3.3
	c0.1-0.6,0.2-1.2,0.2-1.7c0-3.1,0.5-6.1,1-9.2c0.1-0.5-0.1-1.1-0.1-1.7c0-1.4,0.3-2.9,0.1-4.3c-0.2-2-1.5-2.8-3.5-2.3
	c-1.4,0.3-2.8,0.7-4.3,1c-0.1,0-0.5-0.4-0.6-0.7c-0.2-0.3-0.2-0.8-0.3-1.1c-0.3,0.4-0.8,0.9-0.7,1.1c0.3,1.1-0.5,1.1-1.1,1.2
	c-2.1,0.5-4.3,0.8-6.4,1.3c-2.3,0.6-4.5,0.2-6.7-0.4c-3.3-1-6.6-2.4-9.9-3.6c-2.3-0.8-4.5-1.7-6.3-3.4c-0.6-0.5-1.6-0.8-2.4-0.7
	c-1.6,0.2-3.2,0.7-4.7,1.3c-2.2,0.8-4.3,1.6-6.4,2.6c-3.1,1.5-6.2,3.1-9.4,4.6c-3.4,1.6-6.8,3.3-10.3,4.8c-1.1,0.5-2.5,0.5-3.7,0.5
	c-3.9,0.2-7.8,0.8-11.3,2.2c-4.5,1.8-9.3,2.5-13.9,3.8c-2.2,0.6-4.6,0.6-6.9,0.9c-2.6,0.3-5.2,0.7-7.8,1c-1.9,0.3-3.9,0.6-5.8,0.8
	c-2.6,0.2-4.1,1.9-5.4,3.8c-1.9,2.6-2.7,5.7-3.4,8.8c-1,4.6-3.1,8.6-5.8,12.4c-1.1,1.6-2.3,3.3-3.5,4.8c-0.7,0.8-1.6,1.5-2.5,2
	c-1.7,1.1-2.5,2.7-3.4,4.3C289.7,248.8,289.3,249.2,288.9,249.6c-0.5-0.4-0.9-1.2-1.5-0.4c-0.2,0.3-0.3,0.8-0.4,1.2
	c-0.1,0.2-0.1,0.4-0.1,0.5c0.2-0.1,0.4-0.1,0.5-0.2C287.9,250.4,288.4,250,288.9,249.6 M202.2,108.3c0.1,0.3,0.1,0.6,0.2,0.9
	c0.1,0,0.2-0.1,0.3-0.1c-0.1-0.3-0.2-0.6-0.4-0.9c0,0-0.1,0-0.1-0.1c0-0.1,0-0.3,0-0.4c-0.1-0.2-0.2-0.4-0.3-0.5
	c-0.1-0.1-0.3,0.1-0.4,0.1c0.1,0.2,0.2,0.4,0.3,0.5C201.8,108,202,108.1,202.2,108.3 M201.8,257c-0.5-0.1-1-0.3-1.5-0.4
	c-0.2,0-0.5,0.2-0.7,0.2c0.4,0.3,0.8,0.8,1.3,0.9c0.5,0.2,1.1,0.1,1.2-0.8c0.3-0.1,0.6-0.2,0.9-0.3c0,0-0.1-0.4-0.1-0.4
	c-0.2,0-0.5,0-0.7,0.1C202,256.5,202,256.7,201.8,257 M367.7,119.1c-0.2-0.1-0.5-0.2-0.7-0.4c0,0.1-0.1,0.2-0.1,0.3
	c0.3,0.1,0.5,0.1,0.8,0.3c0,0.2,0,0.6-0.1,0.6c-0.3,0.1-0.7,0-1,0c-0.2,0-0.4,0.2-0.4,0.4c0,0.2,0.1,0.6,0.2,0.6
	c0.5,0,1.1,0.1,1.5-0.1c0.3-0.1,0.6-0.6,0.6-0.9C368.4,119.8,368,119.5,367.7,119.1 M253.1,49.3c0.7-0.8,1.4-1.7,2-2.6
	c0.2-0.3,0.2-0.9,0.2-1.3c0-0.2-0.2-0.3-0.3-0.5c-0.2,0.1-0.4,0.2-0.4,0.4c-0.6,1.3-1.9,2.4-1.7,4c-0.7,0.9-1.3,1.8-2,2.7
	c-0.1,0.1-0.1,0.3-0.1,0.5c0,0,0.2,0.1,0.3,0.1c0.6-0.1,1.2-0.2,1.8-0.4c0.2-0.1,0.3-0.3,0.4-0.5C252.2,51,253.2,50.1,253.1,49.3
	 M415.1,188.7c-0.1,0.2-0.2,0.4-0.2,0.5c1.5,0.6,3,1.5,4.5,1.7c1.8,0.2,3.6-0.3,5.4-0.2c1.7,0,4-0.9,4.6-2.1c1-1.9,1.4-2.1,3.4-1.6
	c1.9,0.5,2.1,1.1,1.2,2.8c-0.1,0.3-0.1,0.7,0,0.9c0.4,0.9,1.4,1.6,0.1,2.6c-0.1,0.1,0,0.5,0.1,0.8c0.2,0,0.4,0,0.5-0.2
	c0.8-0.7,1.2-0.6,1.4,0.5c0,0.1,0.2,0.3,0.3,0.4c0.1-0.1,0.2-0.3,0.2-0.4c-0.2-1.1-0.4-2.3-0.6-3.4c-0.3-2.7-0.9-5.4,0.7-7.9
	c1.7-2.6-0.7-6.4-3.8-6.3c-2.4,0.1-4.3,1.4-6.4,2.4c-2.1,1-4.1,2.4-6.6,2.4c-0.3,0-0.7,0.2-1,0.5c-0.9,1-2,1.2-3.3,1.3
	c-1.5,0.2-2.9,0.5-4.4,0.8c-0.2,0-0.5,0.2-0.6,0.4c-0.7,0.8-3.7,1.9-4.7,1.6c-1-0.3-2.1-0.5-2.7,0.8c-0.1,0.2-0.3,0.3-0.5,0.4
	c-0.2,0.1-0.3,0.2-0.5,0.3c0.2,0.2,0.4,0.4,0.6,0.7c0.1-0.2,0.3-0.3,0.4-0.5c0.6-0.9,1.2-1.4,2.2-0.5c0.3,0.3,0.9,0.4,1.3,0.6
	c1,0.2,2.1,0.3,3.2,0.6c1.6,0.5,3.2,1.6,4.8,0C414.8,188.4,414.9,188.5,415.1,188.7 M248.4,64.7c-0.5,1.9-1.3,3.7-1.4,5.6
	c-0.2,3.2,0,6.4,0.2,9.6c0.1,1.4,0.5,2.7,1,4c0.8,2,1.6,2.2,3.3,0.9c3.8-2.7,5.9-8.4,4.7-13.1c-0.8-3.1-2.3-6-4.5-8.5
	c-0.7-0.8-1.6-0.9-2.4-0.1C249.1,63.6,248.9,64.1,248.4,64.7 M261.6,47.8c-0.4,2.2-0.8,4.5-1.2,6.7c-0.1,0.5-0.1,1.1-0.4,1.4
	c-0.5,0.5-0.4,0.9-0.2,1.4c0.4,1,0.4,1.9-0.9,2.2c-0.2,0-0.4,0.4-0.3,0.5c0.3,1,0.6,1.9,1,2.8c0.1,0.2,0.3,0.2,0.5,0.3
	c0.1-0.1,0.1-0.3,0.2-0.4c0.4-0.7,0.8-1.4,1.1-2.2c0.2-0.4,0.3-1,0.1-1.3c-0.7-1-0.4-1.7,0.2-2.6c0.4-0.6,0.5-1.4,0.8-2.2
	c0.4-1.2,0.8-2.3,1-3.5c0.2-1-0.6-2,0.3-2.9c0,0-0.1-0.1-0.1-0.1c-1.4-1.1-1-2.7-0.8-4c0.1-1.5-0.1-2.8-0.5-4.2
	c-0.2-0.6-0.3-1.1,0.5-1.3c0.2-0.1,0.5-0.2,0.7-0.3c-0.2-0.3-0.3-0.8-0.6-0.9c-0.3-0.1-0.8-0.1-1,0.1c-0.7,0.5-0.9,1.2-0.7,2.1
	c0.3,0.9,0.8,1.8,0.6,2.6C261.3,44,261.8,45.8,261.6,47.8 M452,185.6c-0.2-0.1-0.3-0.2-0.5-0.3c-0.2,0.6-0.5,1.2-0.5,1.9
	c0,0.2,0.8,0.6,1.2,0.7c0.7,0.1,1.1,0.1,1.1,1c0,0.4,0.4,0.8,0.6,1.1c0.3-0.3,0.7-0.7,1-1c0.3-0.4,0.6-0.7,0.9-1.1
	c0.1,0.5,0.2,1,0.2,1.5c0,0.1-0.2,0.3-0.2,0.3c0.5,0.5,0.9,0.9,1.4,1.4c0.2-0.4,0.4-0.7,0.5-1.1c0-0.1-0.2-0.5-0.3-0.5
	c-0.9-0.1-1-0.8-0.8-1.4c0.4-1.2-0.4-1.4-1.2-1.5c-0.7-0.1-1.4,0.3-2,0.4c-0.5,0-1.1-0.2-1.6-0.4C451.9,186.5,452,186.1,452,185.6
	 M433.8,159c0.2,0.1,0.4,0.2,0.5,0.3c0.3,0,0.5,0,0.8,0c-0.1-0.2-0.1-0.5-0.3-0.7c-0.2-0.2-0.5-0.3-0.7-0.5c-0.1-0.1,0-0.4,0.1-0.6
	c0.2-0.3,0.5-0.4,0.7-0.7c-0.4,0-0.8-0.1-1.1-0.1c-0.4,0-0.8,0.1-1.1,0.3c-0.7,0.5-1.2,0.1-1.5-0.5c-0.5-1.3-1.9-2.2-1.6-3.8
	c0-0.3-0.4-0.6-0.7-0.9c-0.1,0.4-0.4,0.8-0.3,1.1c0.3,0.9,0.9,1.7,1.2,2.6c0.4,1.4,1,2.6,2.7,2.9C433,158.4,433.3,158.8,433.8,159
	 M459.6,179.8c0.3-0.3,0.5-0.6,0.8-0.9c0.2-0.2,0.5-0.3,0.8-0.5c-0.3-0.1-0.6-0.2-0.9-0.3c-0.3-0.2-0.7-0.3-0.9-0.6
	c-0.1-0.2,0.1-0.6,0.2-0.8c0.5-1.1,1.1-2.2,1.5-3.3c0.1-0.3-0.3-0.7-0.4-1c-0.2,0.3-0.5,0.5-0.6,0.8c-0.4,1.3-0.6,2.6-2,3.4
	c-0.2,0.1-0.4,0.6-0.3,0.7C458.4,178.2,459,179.1,459.6,179.8 M236.5,229.6c-0.2,0.1-0.5,0.4-0.6,0.4c-0.9-0.6-0.8-0.2-1,0.6
	c-0.1,0.5-0.8,0.9-1.3,1.2c-0.5,0.2-1,0.2-1.6,0.3c-0.2,0-0.3,0.2-0.4,0.3c0.2,0.1,0.3,0.2,0.5,0.2c1.9,0.1,3.6-0.1,5.2-1.5
	c0.6-0.5,0.7-1,0.5-1.5C237.7,229.5,236.9,229.4,236.5,229.6 M182.3,267.8c0.1-0.4,0.2-0.7,0.3-1.1c0.3-1.5,1.2-2.2,2.7-2.5
	c0.5-0.1,0.9-0.4,1.3-0.7c0.1,0,0.1-0.3,0-0.3c-0.5-0.3-3.1,0.1-3.4,0.6c-0.8,1.3-1.7,2.5-2.5,3.8c-0.1,0.2,0.2,0.5,0.3,0.8
	C181.3,268.3,181.7,268.1,182.3,267.8 M446.4,164c0.4-0.7,0.7-1.6,1.7-0.5c0.1,0.1,0.4,0,0.6,0c0-0.2,0-0.4-0.1-0.5
	c-0.6-1.2-2.3-1.8-1.8-3.6c0-0.1-0.3-0.4-0.5-0.4c-0.1,0-0.5,0.3-0.5,0.4c0.1,0.9,0.3,1.7,0.4,2.5c0,0.3,0.1,0.7,0,0.9
	c-0.3,0.5-0.7,0.8-1,1.3c-0.1,0.1,0,0.5,0.1,0.6c0.3,0.2,0.6,0.3,0.9,0.4C446.3,164.8,446.3,164.5,446.4,164 M258.2,71.9
	c0.2-0.9,0.4-1.8,0.5-2.6c0.1-0.8,0.2-1.6,0.2-2.4c0-0.4,0-0.7,0.1-1.1c0-0.3,0.1-0.5,0.2-0.7c-0.3,0.1-0.7,0.3-0.7,0.4
	c-0.2,1.1-0.6,0.6-1,0.2c-0.2-0.2-0.4-0.2-0.6-0.3c0,0.3-0.2,0.6-0.1,0.9c0.1,0.2,0.3,0.4,0.5,0.5c1,0.5,1.2,1.1,0.5,2.1
	C257.2,69.9,257.3,71.2,258.2,71.9 M243.8,60.9c-1-1-1-2.3-0.8-3.6c0-0.2-0.4-0.5-0.6-0.7c-0.2,0.2-0.4,0.4-0.4,0.7
	c-0.1,0.5,0,1-0.1,1.4c-0.5,1.5,0.5,3.4,2.1,3.7c0.1,0,0.4-0.1,0.4-0.2c0.1-0.1,0-0.3-0.1-0.5C244.2,61.5,244.1,61.3,243.8,60.9
	 M218.6,99.3c-0.5,0.2-1,0.3-1.4,0.7c-0.2,0.2-0.2,0.7-0.3,1c0.2,0,0.5,0.2,0.7,0.1c1.3-0.7,3-0.9,3.4-2.8c0.1-0.3,0.6-0.4,0.9-0.7
	c0.1-0.1,0.1-0.3,0.2-0.5c-0.5-0.1-1.1-0.2-1.6-0.2c-0.2,0-0.5,0.4-0.6,0.6C219.4,98.2,219.1,98.7,218.6,99.3 M245.5,84.4
	c0.1,0.6,0.3,1.2,0.3,1.8c0,0.4-0.2,0.8-0.2,1.2c0,0.3,0.2,0.6,0.3,0.9c0.2-0.3,0.7-0.5,0.7-0.8c0.1-1.3,0.5-2.6-0.5-3.7
	c-0.4-0.5-0.9-1-1.3-1.5c-0.1-0.1-0.3-0.3-0.4-0.4c-0.1,0.2-0.3,0.4-0.3,0.6c-0.1,0.2,0,0.5,0,0.8c0,0.3,0.3,0.6,0.6,0.7
	C244.9,83.9,245.2,84.1,245.5,84.4 M250.8,94.8c-0.1-0.4-0.2-0.8-0.4-1.1c-0.3-0.8-0.7-1.6-1.1-2.4c-0.1-0.2-0.5-0.3-0.8-0.4
	c0.1,0.3,0.2,0.6,0.3,0.9c0.1,0.2,0.2,0.4,0.3,0.6c-0.1,0-0.2,0.1-0.4,0.1c-0.2,0-0.4-0.1-0.6-0.1c0.1,0.3,0,0.7,0.2,1
	c0.6,0.7,1.2,1.4,1.8,2.1c0.2,0.3,0.5,0.4,0.8,0.6C250.9,95.7,250.9,95.3,250.8,94.8 M234.5,82.3c0.3-0.3,0.5-0.7,0.8-1
	c0.4-0.4,0.7-0.7,1.1-1.1c-0.5,0-1,0-1.5,0.1c-0.4,0.1-0.8,0.4-1.2,0.6c-0.6,0.5-1.1,1.1-1.6,1.6c-0.2,0.2-0.2,0.5-0.4,0.8
	c0.3,0.1,0.7,0.4,0.9,0.3C233.4,83.2,233.9,82.8,234.5,82.3 M441.3,195.5c0.6-0.4,1.2-0.8,1.7-1.2c0.2-0.2,0.4-0.4,0.6-0.6
	c-0.4-0.1-1-0.5-1.2-0.4c-0.8,0.7-1.6,1.4-2.2,2.3c-0.4,0.7-0.8,0.9-1.5,0.7c-0.2-0.1-0.4-0.1-0.5-0.1c0.1,0.2,0.1,0.5,0.3,0.6
	c0.3,0.2,1,0.4,1.1,0.3c0.9-0.9,1-0.4,1,0.5c0,0.2,0.3,0.4,0.5,0.6c0.1-0.2,0.3-0.5,0.3-0.7C441.3,197,441.2,196.3,441.3,195.5
	 M462.5,193.5c-0.1-0.8-0.7-0.8-1.2-0.5c-0.1,0.1-0.1,0.9,0.1,1.2c0.6,0.8,1.2,1.5,1.9,2.2c0.1,0.1,0.5,0.2,0.6,0.1
	c0.5-0.5,1.1-1,1.5-1.6c0.1-0.1-0.4-0.7-0.6-1c-0.1,0.1-0.3,0.2-0.4,0.3c-0.2,0.4-0.3,0.8-0.4,1.2c-0.3-0.4-0.6-0.8-0.9-1.2
	C462.9,194,462.8,193.8,462.5,193.5 M261.5,212.4c0.4,0,0.8,0,1.1-0.1c0.2-0.1,0.4-0.4,0.6-0.6c-0.2-0.1-0.5-0.3-0.7-0.3
	c-0.6,0-1.1-0.1-1.7,0c-0.8,0.1-1.8,0.1-1.6,1.4c0.1,0.6-0.3,0.6-0.8,0.4c-0.2-0.1-0.5,0.2-0.8,0.3c0.2,0.1,0.4,0.4,0.7,0.4
	c0.9,0,1.9,0.3,2.2-1.1C260.7,212.7,261,212.6,261.5,212.4 M251,89.1c0.2,0.1,0.4,0.3,0.6,0.4c0.4-1.3,0.7-0.2,1.1,0.1
	c0.2,0.1,0.3,0.4,0.4,0.6c0.1-0.3,0.3-0.5,0.4-0.8c0.2-0.5,0.5-1.1,0.7-1.7c0.1-0.4,0.2-0.7,0.3-1.1c-0.4,0.1-0.9,0.2-1.3,0.4
	c-0.6,0.3-1,0.7-1.6,1c-0.3,0.1-0.7-0.1-1-0.1C250.7,88.2,250.8,88.6,251,89.1 M467.2,188c0.1-0.7-1.2-1.4,0-2.2
	c0,0-0.1-0.3-0.1-0.3c-1.5-0.1-0.4-0.9-0.4-1.5c0-0.2-0.1-0.4-0.2-0.6c-0.2,0.1-0.4,0.1-0.6,0.3c-0.5,0.7-0.7,1.3-0.3,2.1
	c0.8,1.5,1.9,2.9,1.3,4.8c0,0.1,0.2,0.3,0.3,0.5c0.2-0.1,0.4-0.2,0.4-0.3c0.1-0.5,0.2-1,0.1-1.4C467.8,189,467.6,188.5,467.2,188
	 M236.1,49.8c0.2,0,0.4-0.1,0.7-0.1c-0.1-0.3-0.2-0.6-0.3-0.9c-0.2-0.9-0.6-1.4-1.6-1.3c-1.1,0-0.3,0.8-0.5,1.2
	c-0.1,0.1,0,0.4-0.1,0.5c-0.5,0.7-0.1,1.2,0.4,1.6c0.1,0.1,0.3,0.2,0.5,0.3c0-0.2,0-0.4,0-0.6C235,49.9,235.3,49.7,236.1,49.8
	 M475.6,211.3c-0.2-0.2-0.5-0.4-0.7-0.6c-0.1,0.2-0.3,0.4-0.3,0.5c0.3,0.6,0.5,1.4,1,1.7c0.8,0.5,0.5,0.8,0.1,1.2
	c-0.9,0.8-0.9,1.9-0.5,2.9c0.1,0.2,0.5,0.2,0.7,0.3c0.1-0.2,0.1-0.5,0.2-0.7c0.1-0.6,0-1.2,0.2-1.8c0-0.2,0.7-0.4,0.7-0.4
	C476.5,213.4,476,212.5,475.6,211.3 M467.9,204.6c0.1-0.6,0.1-1.2,0.2-1.8c0.1-0.7,0.1-1.4,0.1-2.1c-0.3,0.3-0.5,0.9-0.8,0.9
	c-1.1,0.1-0.7,0.8-0.7,1.3c0.2,1.4,0.5,2.8,0.8,4.2c0,0.1,0.1,0.2,0.1,0.3c0.1-0.1,0.3-0.2,0.3-0.3C468,206.4,468,205.5,467.9,204.6
	 M452.4,173.7c0.5,0.2,0.9,0.5,1.4,0.6c0.4,0.1,0.9,0,1.3,0c-0.3-0.2-0.5-0.4-0.8-0.5c-0.1-0.1-0.3,0-0.3-0.1
	c-0.7-1.6-1.9-0.2-2.8-0.4c-0.1,0-0.4,0.4-0.5,0.6c-0.2,0.3-0.3,0.7-0.4,1c-0.1,0.4-0.1,0.8-0.2,1.2c0.4-0.2,0.8-0.3,1.1-0.5
	c0.2-0.2,0.1-0.6,0.3-0.9C451.7,174.3,452,174,452.4,173.7 M442.1,178.3c-0.1-0.4-0.1-0.8-0.2-1.2c-0.1,0.1-0.4,0.1-0.4,0.2
	c-0.7,1.6-2.6,2.6-2.3,4.7c0.1,0.4,0.1,0.7,0.1,1.1c0.2-0.3,0.7-0.6,0.7-0.9C439.9,180.5,440.9,179.4,442.1,178.3 M179,271.6
	c-0.7-0.1-0.8-0.5-0.5-1.1c0.1-0.1,0-0.3,0-0.5c-0.6,0.2-1.2,0.3-1.6,0.7c-0.2,0.1,0.2,1,0.5,1.4c0.2,0.3,0.7,0.5,1,0.6
	c0.4,0.1,0.8,0.2,1.2,0.3C179.4,272.6,179.3,272.2,179,271.6 M247.2,58.8c0.5-0.7,0.9-1.4,1.4-2.2c0.1-0.2,0.1-0.5,0.1-0.8
	c-0.2,0-0.5,0-0.7,0.1c-1.2,0.3-2.3,3.3-1.8,4.5c0.1,0.1,0.2,0.2,0.4,0.3c0-0.2,0.1-0.3,0.1-0.5C246.9,59.9,247.1,59.5,247.2,58.8
	 M466.8,193.6c-0.8,0.5-0.9,1.6-0.2,2.1c0.1,0.1,0.5-0.2,0.5-0.3c0-0.7,0.2-1.1,1-1.2c0.3,0,0.7-0.5,0.9-0.9
	c0.1-0.2,0.1-0.5,0.2-0.8c-0.3,0-0.6,0-0.8,0.1C468,192.9,467.5,193.2,466.8,193.6 M268.7,208.9c0.1-0.7-0.1-1.3-0.7-1.8
	c-0.1-0.1-0.3-0.1-0.4-0.2c0,0.2,0.1,0.3,0.1,0.5c0.2,0.8,0.4,1.4-0.8,1.4c-0.3,0-0.7,1.1-1,1.7c0.2,0.1,0.4,0.3,0.5,0.2
	C267.1,210.2,267.8,209.6,268.7,208.9 M267.1,69c0-0.3,0-0.7,0-1c0-0.1-0.3-0.2-0.5-0.3c-0.6,1.4-1.2,2.8-1.8,4.2
	c0,0.1,0.2,0.3,0.3,0.4c0.1,0,0.4,0,0.4-0.1C266.1,71.2,266.6,70.3,267.1,69 M457.2,175c-0.8,0.2-1.7,0.3-2.5,0.6c0,0,0,0.6,0,0.6
	c1,0.2,1.1,1.2,1.6,1.9c0.2,0.3,0.5,0.5,0.8,0.7c-0.1-0.3-0.1-0.7-0.2-1c-0.1-0.3-0.3-0.5-0.5-0.7c-0.4-0.5-1-1,0.3-1.1
	C456.9,176,457.1,175.4,457.2,175 M471.2,209.2c0.2,0.1,0.5,0.2,0.5,0.2c0.4-0.7,0.7-1.3,1-2c0.1-0.3,0-0.7-0.1-1
	c-0.5-1.1-1.4-0.5-2.2-0.5c-0.2,0-0.4,0.4-0.6,0.6c0.2,0.1,0.4,0.2,0.7,0.2c0.9,0,1.4,0.1,0.9,1.2
	C471.3,208.2,471.3,208.6,471.2,209.2 M348.3,122.7c-0.2,0.7-0.2,0.7,0.3,0.8c1.1,0.1,2.1,0.4,3.2,0.6c0.2,0,0.4,0,0.6,0.1
	c-0.1-0.2-0.1-0.3-0.2-0.5C351.3,122.4,350,122,348.3,122.7 M232.3,221.5c0.2-0.5,0.4-1,0.4-1.5c0-0.3-0.1-0.6-0.2-0.9
	c-0.2,0.1-0.4,0.2-0.5,0.3c-0.9,0.8-0.7,2.9,0.5,3.5c0.3,0.2,0.8,0.1,1.2,0.1c-0.2-0.3-0.4-0.6-0.7-0.8
	C232.7,222,232.5,221.9,232.3,221.5 M280.5,128c-1.2-1.2-2.5-1-3.9-0.7c-0.2,0-0.3,0.1-0.5,0.2c0.2,0.1,0.4,0.3,0.5,0.3
	c1.1-0.4,1.8,0,2.5,0.8c0.2,0.2,0.6,0.3,0.9,0.2C280.2,128.8,280.3,128.5,280.5,128 M284,128.9c1.3,0,2.5-0.1,3.8-0.1
	c0.1,0,0.1-0.2,0.2-0.4c-0.3-0.1-0.5-0.3-0.8-0.3c-1.7,0-3.4,0.1-5.1,0.2c-0.2,0-0.4,0.1-0.6,0.1c0.2,0.2,0.3,0.4,0.5,0.4
	C282.6,128.9,283.2,128.9,284,128.9 M229.4,236.1c0.3-0.4,0.9-0.7,1-1.1c0.1-0.8,0.7-1.7-0.2-2.4c-0.2-0.2-0.3-0.6-0.5-0.8
	c-0.1-0.1-0.4,0.1-0.6,0.1c0.2,0.4,0.3,0.8,0.6,1.1c0.6,0.5,0.5,0.8,0,1.3C229.2,234.8,228.6,235.4,229.4,236.1 M243.4,78.1
	c0.2,0.5,0.5,0.9,0.6,1.4c0.2,0.5-0.3,1.5,0.7,1.4c1-0.1,0.5-1.1,0.6-1.7c0-0.3-0.2-0.6-0.4-0.9C244.6,77.8,243.7,77.6,243.4,78.1
	 M374.4,117.6c-0.2,0.1-0.4,0.2-0.5,0.2c-0.7,0-1.5,0-2.2,0c-0.3,0-0.5,0.2-0.7,0.4c0,0,0.1,0.3,0.2,0.4c1.3,0.7,3,0.2,3.8-1
	c0.2-0.3,0.2-0.8,0.3-1.2c0-0.1-0.3-0.1-0.4-0.2C374.7,116.7,374.6,117.1,374.4,117.6 M461,190.6c-0.1,0-0.1-0.1-0.2-0.1
	c-0.8-0.6-1.3-0.2-1.6,0.5c-0.2,0.3,0,0.9,0.1,1.3c0.4-0.1,0.9-0.1,1.3-0.2c0.1,0,0.2-0.2,0.3-0.2C462,191.7,461.5,191.2,461,190.6
	 M448.3,188.3c0.2,0.5,0.4,1,0.5,1.6c0.4-0.4,0.9-0.8,1.2-1.3c0.2-0.2,0.3-0.7,0.3-0.8c-0.4-0.2-0.8-0.6-1.2-0.5
	C448.8,187.4,448.5,187.9,448.3,188.3 M242,53.9c0-0.4,0-0.7,0-1.1c0-0.4,0-0.9,0-1.3c0-0.1-0.3-0.3-0.5-0.4
	c-0.1,0.2-0.2,0.3-0.3,0.5c-0.1,1.1-0.2,2.3-0.3,3.4c0,0.3,0.2,0.6,0.3,0.8c0.3-0.2,0.6-0.4,0.7-0.7C242.1,54.9,242,54.5,242,53.9
	 M430.8,192.4c-0.1,0.3-0.2,0.5-0.2,0.8c0,0.2,0.1,0.4,0.2,0.6c0.3-0.1,0.7-0.2,0.7-0.3c0-1,1-2.1-0.2-3.1c-0.2-0.1-0.3-0.3-0.5-0.4
	c-0.1,0.2-0.3,0.4-0.3,0.7C430.6,191.2,430.7,191.7,430.8,192.4 M221,80c-0.1,1.4-0.2,2.7-0.2,4.1c0,0.2,0.2,0.5,0.4,0.8
	c0.1-0.2,0.4-0.4,0.4-0.6c-0.1-1.5-0.2-2.9-0.2-4.4C221.3,79.9,221.2,79.9,221,80 M435.2,175c-0.2-0.3-0.4-0.7-0.6-1
	c-0.2,0.2-0.5,0.3-0.7,0.5c-0.6,0.9,0.2,1.3,0.7,1.8c0.4,0.3,0.8,0.5,1.3,0.7c-0.2-0.5-0.4-1-0.6-1.5
	C435.3,175.3,435.3,175.2,435.2,175 M366.7,197.1c0.1-0.1,0.3-0.3,0.2-0.4c-0.1-1.5,0.6-1.6,1.7-1c0.1,0.1,0.3,0,0.5,0
	c0.2,0,0.4-0.1,0.7-0.2c-0.1-0.2-0.2-0.5-0.4-0.6c-0.2-0.1-0.5-0.3-0.8-0.3c-0.8,0.1-1.7-0.1-2.1,0.8
	C366.3,196,366.5,196.7,366.7,197.1 M440.7,158.2c-0.7-0.6-1.2-0.3-1.6,0.3c-0.1,0.2,0,0.6,0.1,0.8c0.1,0.2,0.6,0.2,0.6,0.2
	c0.4-1.1,1.1-0.3,1.7-0.3c0.4,0,0.8-0.3,1.2-0.4c0.1-0.1,0.1-0.3,0.2-0.4c-0.2,0-0.4-0.1-0.5,0C441.8,158.7,441.3,158.9,440.7,158.2
	 M225,92.4c0.1-0.6,0.2-1.1,0.1-1.7c0-0.2-0.4-0.4-0.6-0.6c-0.1,0.2-0.3,0.4-0.3,0.7c0,0.9,0,1.7,0,2.6c0,0.2,0.1,0.4,0.2,0.7
	c0.2-0.2,0.4-0.4,0.5-0.6C225,93.2,224.9,92.9,225,92.4 M459.4,169.6c-0.5-0.6-0.8-0.3-0.8,0.3c0,1,0.3,2-0.3,2.9
	c-0.1,0.1,0.1,0.4,0.1,0.6c0.2-0.1,0.5-0.2,0.5-0.3C459.3,172.1,460.1,171.1,459.4,169.6 M491.1,240.1c0-0.3,0-0.6,0-0.9
	c-0.4,0.2-0.8,0.3-1.1,0.6c-0.1,0.1-0.1,0.5,0,0.7c0.2,0.6,0.5,1.2,0.8,1.7c0,0,0.3-0.1,0.3-0.1
	C491.1,241.5,491.1,240.9,491.1,240.1 M229.8,85.7c0.4,0,0.8,0,1.2,0c0.2,0,0.4-0.3,0.5-0.4c-0.2-0.1-0.3-0.3-0.5-0.3
	c-0.6,0-1.2-0.1-1.8,0c-0.4,0.1-0.8,0.6-1.1,1c-0.1,0.1,0.1,0.4,0.1,0.5c0.4-0.2,0.7-0.4,1.1-0.5C229.5,85.9,229.6,85.9,229.8,85.7
	 M319.7,130.7c-0.9-0.9-1.9-1.7-2.8-2.6c-0.1,0.1-0.4,0.3-0.3,0.4C316.7,130.1,318.1,131.1,319.7,130.7 M441,161.2
	c-0.2-0.3-0.3-0.6-0.5-0.9c-0.4,0.4-0.9,0.8-1.3,1.2c-0.2,0.2-0.2,0.5-0.3,0.8c0.4,0,0.8-0.1,1.1-0.1c0.3,0,0.6,0,0.9,0
	C442.2,162.1,441.5,161.7,441,161.2 M398.4,190c0.5-0.2,1.1-0.4,1.6-0.7c0.2-0.1,0.3-0.5,0.4-0.7c-0.7,0-1.5-0.3-2.1,0
	C397.6,188.9,397.6,189.6,398.4,190 M439.6,215.3c-0.1,0-0.3,0.1-0.4,0.1c0.4,1,0.8,2.1,1.3,3.1c0,0.1,0.6,0,0.8-0.1
	c0.1,0,0.1-0.4,0-0.5C440.9,217.1,440.3,216.3,439.6,215.3 M448.3,170c-0.2,0-0.4,0-0.7,0c0.1,0.4,0.2,0.9,0.3,1.3
	c0.2,0.6,0.5,1.2,0.7,1.8c0.1,0.2,0.1,0.4,0.1,0.6c0.1-0.2,0.4-0.4,0.4-0.6C449.3,172,449.1,171,448.3,170 M446.7,166.1
	c-0.9,0.4-1.4,1.1-1.2,2.1c0.1,0.2,0.5,0.3,0.7,0.5C446.5,167.8,447.7,167.3,446.7,166.1 M472.6,224c0.2,0.3,0.4,0.7,0.6,0.7
	c0.3,0,0.6-0.3,0.9-0.5c0.2-0.2,0.4-0.5,0.6-0.8c0.1-0.2,0.2-0.3,0.3-0.5c-0.2-0.1-0.5-0.3-0.6-0.3C473.8,223,473.3,223.4,472.6,224
	 M212,103.5c0.2-0.1,0.5-0.1,0.7-0.2c0.3-0.1,0.5-0.3,0.7-0.4c-0.4-0.1-0.7-0.3-1.1-0.4c-0.4-0.1-0.7-0.1-1.1,0
	c-0.3,0.1-0.6,0.4-0.9,0.5c0.3,0.2,0.5,0.3,0.8,0.4C211.3,103.5,211.5,103.5,212,103.5 M438.2,141.9c0,0.4,0.1,0.8,0.1,1.2
	c0.1-0.2,0.3-0.5,0.4-0.7c0.2-0.2,0.5-0.3,0.7-0.5c0.1-0.1,0.3-0.5,0.2-0.6c-0.4-0.4-0.9-0.8-1.3-1.1c-0.1,0.4-0.1,0.9-0.2,1.3
	C438.2,141.5,438.2,141.6,438.2,141.9 M221.6,89.7c0.1-0.2,0.2-0.4,0.2-0.5c-0.3,0-0.8,0-0.9,0.1c-0.5,0.8-0.8,1.6-1.2,2.5
	c-0.1,0.1,0.2,0.4,0.3,0.6c0.1-0.1,0.3-0.3,0.4-0.4C220.9,91.4,221.2,90.7,221.6,89.7 M223.8,85.7c-0.4,0.1-0.9,0.1-1.3,0.3
	c-0.2,0.1-0.3,0.3-0.4,0.5c0,0,0.2,0.3,0.3,0.3c0.7-0.1,1.5-0.1,2.2-0.3c0.2-0.1,0.4-0.5,0.5-0.7C224.8,85.7,224.4,85.7,223.8,85.7
	 M255.2,215.1c0.3-0.1,0.6-0.3,0.9-0.4c-0.3-0.1-0.6-0.3-0.9-0.3c-0.4-0.1-0.8-0.1-1.1,0c-0.2,0.1-0.4,0.3-0.6,0.5
	c0.3,0.2,0.6,0.5,0.9,0.6C254.5,215.5,254.8,215.3,255.2,215.1 M430.3,112.8c0.7,0,1.5-0.1,2.2-0.1c0.2,0,0.4-0.2,0.7-0.3
	c-0.2-0.1-0.4-0.3-0.7-0.4c-0.3-0.1-0.7-0.2-1.1-0.3C430.8,111.5,430.2,111.6,430.3,112.8 M444.2,161.5c-0.2,0.4-0.4,0.9-0.5,1.3
	c0,0.3,0.2,0.6,0.3,0.9c0.3-0.2,0.8-0.4,0.9-0.6C444.9,162.5,445.4,161.6,444.2,161.5 M387.5,117.4c0.7-0.5,1.4-1,2.1-1.6
	c0.1-0.1,0.2-0.3,0.3-0.5c-0.7,0.2-1.5,0.2-2.1,0.6C387.5,116,387.5,116.8,387.5,117.4 M437.5,205.6c0.3,0.4,0.7,0.9,1,1.3
	c0.1,0.1,0.3,0.1,0.4,0.2c0.1-0.3,0.3-0.6,0.2-0.8c-0.3-0.5-0.7-0.9-1.1-1.4C437.9,205.1,437.6,205.3,437.5,205.6 M462.3,175.6
	c0.3,0,0.5,0.1,0.8,0.1c0.1-0.5,0.2-1,0.1-1.5c-0.1-0.3-0.5-0.6-0.8-0.8c-0.1,0.3-0.1,0.6-0.2,0.9
	C462.2,174.7,462.3,175,462.3,175.6 M195.6,265c0.5-0.6,1.1-1.3,1.5-2c0.1-0.2-0.4-0.7-0.6-1c-0.1,0.1-0.4,0.4-0.4,0.4
	c0.7,1.1-0.4,1.4-0.8,2C195.4,264.5,195.5,264.8,195.6,265 M397.6,112.8c-0.2,0.1-0.4,0.1-0.5,0.3c-0.3,0.3-0.5,0.6-0.7,0.9
	c0.4,0,0.8,0,1.2,0c0.2,0,0.3-0.2,0.5-0.3c0.2-0.2,0.4-0.4,0.6-0.6C398.3,112.9,398,112.8,397.6,112.8 M289.9,128.5
	c0.4,0.1,0.8,0.4,1.1,0.4c0.4,0,0.8-0.4,1.2-0.6c-0.3-0.2-0.6-0.3-1-0.4c-0.3-0.1-0.6-0.2-0.9-0.3
	C289.6,127.5,289.5,127.8,289.9,128.5 M461.9,179.2c-0.1,0.2-0.3,0.5-0.4,0.7c-0.4,0.8,0,1.7,0.4,1.3c0.4-0.5,0.6-1.2,0.8-1.8
	C462.8,179,462.8,179,461.9,179.2 M231.4,82c0.1-0.7,0.2-1.3,0.3-2c0-0.1-0.3-0.2-0.4-0.2C230.6,80.1,230.5,81.6,231.4,82
	 M466.6,199.1c-0.5-0.1-1-0.2-1.6-0.3c-0.2,0-0.4,0-0.5,0c0,0.3-0.1,0.6,0,0.8C464.9,200.1,466.3,199.8,466.6,199.1 M290.1,243.3
	c-0.2,0.1-0.3,0.2-0.5,0.3c-0.3,0.1-0.6,0.1-0.9,0.2c0.1,0.2,0.2,0.4,0.3,0.5c0.4,0.2,0.9,0.4,1.1,0.3c0.3-0.2,0.5-0.7,0.7-1.1
	C290.5,243.4,290.4,243.3,290.1,243.3 M476.4,222.3c0.3,0.1,0.7,0.2,1,0.4c0.4,0.2,0.7,0.3,1,0.6c0.2,0.2,0.3,0.5,0.5,0.7
	c0.1-0.2,0.3-0.4,0.3-0.5c0-0.3-0.1-0.7-0.3-0.8C478,222.4,477.2,222.2,476.4,222.3 M354.5,120.8c0.2-0.2,0.4-0.4,0.7-0.6
	c-0.2-0.1-0.5-0.4-0.7-0.4c-0.5,0.1-1.1,0.4-1.6,0.6C353.3,120.5,353.8,120.6,354.5,120.8 M264.9,118.9c0.6,0.5,1.1,1,1.7,1.5
	c0.1,0.1,0.2,0.2,0.4,0.4c0.1-0.2,0.2-0.4,0.1-0.6C267.1,119.4,266.1,118.7,264.9,118.9 M449.8,168.7c-0.2-0.2-0.5-0.3-0.6-0.5
	c-0.2-0.2-0.2-0.6-0.3-0.8c-0.1,0.1-0.4,0.2-0.4,0.3c0,0.3,0.1,0.7,0.2,1c0,0.2,0.1,0.3,0.2,0.4c0.1,0.3,0.3,0.6,0.4,0.9
	C449.5,169.6,449.7,169.2,449.8,168.7 M193.7,266.7c0-0.2-0.1-0.3-0.1-0.5c-0.6,0.2-1.2,0.3-1.7,0.6c-0.3,0.2-0.4,0.6-0.6,0.9
	c0.4-0.1,0.7-0.2,1.1-0.3C192.7,267.1,193,266.9,193.7,266.7 M303.9,127.3c0.3,0.1,0.7,0.2,1,0.3c0,0,0.1-0.2,0.1-0.3
	c-0.4-0.2-0.8-0.5-1.2-0.6c-0.2-0.1-0.5,0.1-0.8,0.2c-0.4,0.1-0.7,0.3-1.1,0.4c0,0,0.1,0.3,0.1,0.3c0.4-0.1,0.8-0.1,1.2-0.2
	C303.4,127.5,303.5,127.4,303.9,127.3 M450.5,184.5c-0.3,0-0.6-0.1-0.8,0c-0.3,0.1-0.4,0.4-0.7,0.6c0.5,0.2,1,0.6,1.4,0.6
	C450.8,185.8,451.2,185.1,450.5,184.5 M445.5,232c-0.7-0.4-0.4-0.8-0.1-1.3c0.1-0.1-0.1-0.4-0.1-0.7c-0.1,0.1-0.3,0.1-0.4,0.2
	c-0.5,0.5-0.2,2.2,0.3,2.5c0.2,0.1,0.5,0,0.7,0.1C445.9,232.6,445.7,232.3,445.5,232 M361.3,119.7c-0.6,0.2-1.1,0.4-1.7,0.7
	c-0.1,0,0,0.5,0.1,0.6C360.4,121.4,361.4,120.6,361.3,119.7 M365.6,199c0.2,1,1.1,1.6,1.9,1.2c0.1-0.1,0.1-0.2,0.2-0.4
	C367.1,199.4,366.4,199.1,365.6,199 M493.8,238.1c-0.1,0.5-0.2,1-0.3,1.5c0.3-0.3,0.7-0.6,1-0.9c0.1-0.1,0.1-0.1,0.2-0.2
	c0.2-0.2,0.3-0.5,0.4-0.7C494.7,237.9,494.3,237.9,493.8,238.1 M255.6,60.9c-0.4-0.4-0.7-0.8-1.1-1c-0.2-0.1-0.6,0.1-0.9,0.1
	c0.2,0.2,0.3,0.4,0.5,0.5c0.3,0.3,0.6,0.6,0.9,0.9C255.2,61.5,255.4,61.3,255.6,60.9 M338,125.5c-0.4,0.1-0.8,0.1-1.2,0.3
	c-0.2,0.1-0.3,0.4-0.5,0.6c0.2,0,0.5,0.1,0.7,0.1c0.5-0.1,0.9-0.3,1.4-0.5c0.3-0.1,0.5-0.2,0.8-0.3
	C338.9,125.6,338.6,125.6,338,125.5 M400.1,115.3c0.4-0.2,0.8-0.4,1.2-0.6c-0.4-0.1-0.8-0.1-1.2-0.2c-0.1,0-0.3,0-0.4,0
	c-0.4,0.1-0.9,0.1-1.3,0.2c0.4,0.1,0.8,0.2,1.2,0.3C399.6,115.1,399.7,115.2,400.1,115.3 M234.8,77.6c0.3,0.3,0.6,0.7,0.9,0.9
	c0.1,0.1,0.5,0,0.7-0.2c0.2-0.2,0.2-0.5,0.2-0.7C236,77.8,235.4,76.6,234.8,77.6 M376.2,118.7c0.4-0.1,0.8-0.2,1.2-0.4
	c-0.3-0.2-0.5-0.6-0.8-0.6c-0.4-0.1-0.8,0.2-1.2,0.3C375.6,118.2,375.8,118.4,376.2,118.7 M431.4,173.3c-0.6,0.5-1.3,0.9-1.9,1.4
	c-0.1,0-0.1,0.3,0,0.3c0.1,0.1,0.3,0.1,0.3,0.1C430.3,174.6,430.8,174.1,431.4,173.3 M378.1,117.6c0.3,0.1,0.7,0.2,1,0.3
	c-0.1-0.4,0-0.8-0.2-1.1c-0.2-0.2-0.6-0.3-0.9-0.5C377.9,116.8,377.9,117.1,378.1,117.6 M425.5,108.7c0,0.2,0,0.5,0,0.5
	c0.6,0.3,1.2,0.5,1.8,0.7c0.2,0.1,0.4,0.1,0.5,0.1c0-0.2,0-0.6,0-0.6C427.1,109.2,426.4,109,425.5,108.7 M253.3,100.7
	c-0.1-0.3-0.1-0.6-0.3-0.9c-0.1-0.3-0.3-0.5-0.5-0.8c-0.1,0.3-0.3,0.6-0.3,0.8c0,0.4,0.1,0.9,0.3,1.3c0.1,0.2,0.3,0.3,0.4,0.4
	C253,101.4,253.1,101.2,253.3,100.7 M229.8,224.7c0.2-0.1,0.4-0.2,0.7-0.3c0.2-0.1,0.5-0.1,0.7-0.2c-0.2-0.2-0.5-0.3-0.7-0.4
	c-0.3-0.1-0.7-0.2-0.8-0.1c-0.2,0.2-0.3,0.6-0.5,0.9C229.3,224.7,229.5,224.8,229.8,224.7 M436.9,117.2c0-0.7,0.2-1.5-0.6-1.9
	c-0.1-0.1-0.4,0.1-0.7,0.2C435.9,116.2,436.3,116.8,436.9,117.2 M250.1,219.1c0.2,0.3,0.5,0.6,0.7,0.8c0.1-0.3,0.4-0.8,0.3-1
	c-0.2-0.4-0.6-0.6-0.9-0.9C250.1,218.3,250.1,218.7,250.1,219.1 M311.5,209.8c-0.6,0.5-1.1,1.1-1.7,1.6c-0.1,0.1,0.1,0.3,0.1,0.5
	c0.1,0,0.4-0.1,0.4-0.2C310.8,211.2,311.2,210.6,311.5,209.8 M440.8,211.8c-0.1-0.4-0.2-0.8-0.3-1.2c-0.2,0.4-0.3,0.9-0.5,1.3
	c0,0,0,0.1,0,0.1c0.1,0.3,0.1,0.6,0.2,0.9C440.4,212.7,440.6,212.4,440.8,211.8 M395.1,112.9c-0.4,0.1-0.8,0.1-1.2,0.3
	c-0.1,0.1-0.2,0.5-0.2,0.7c0.1,0.2,0.3,0.4,0.5,0.6C394.6,114,395,113.4,395.1,112.9 M472.1,218.2c-0.2-1.1-0.9-0.2-1.3-0.3
	c-0.3-0.1-0.6-0.1-0.9-0.1c0,0.1,0,0.3,0.1,0.3c0.4,0.2,0.7,0.5,1.1,0.5C471.3,218.7,471.7,218.5,472.1,218.2 M255.1,217
	c0.8,0.4,1.2-0.1,1.6-0.6c0.1-0.1,0.1-0.3,0.1-0.4c-0.1-0.1-0.3-0.3-0.4-0.2C255.9,216.2,255.4,216.5,255.1,217 M463.8,182.7
	c1.9,0.4-0.2-1,0.5-1.2c-0.2-0.3-0.4-0.6-0.6-0.9c0,0-0.2,0.1-0.2,0.1c0,0.4,0,0.8,0,1.2C463.6,182.1,463.7,182.3,463.8,182.7
	 M244.6,74.5c-0.2,0.3-0.5,0.6-0.7,1c-0.1,0.2-0.1,0.4,0,0.6c0,0.1,0.3,0.2,0.4,0.1c0.3-0.2,0.7-0.4,0.8-0.7
	C245.2,75.2,244.9,74.8,244.6,74.5 M240.6,75.2c-0.5,0.4-0.9,0.7-1.3,1.1c0,0,0.2,0.3,0.2,0.5C239.9,76.3,240.3,75.8,240.6,75.2
	 M404.6,114.4c0.2,0.2,0.3,0.4,0.5,0.6c0.1-0.5,0.3-1,0.2-1.4c-0.1-0.3-0.5-0.6-0.7-0.9c0,0.3,0,0.7,0,1
	C404.6,113.8,404.6,114,404.6,114.4 M403.7,115.3c-0.2,0.1-0.5,0.1-0.7,0.2c-0.3,0.2-0.5,0.5-0.7,0.7c0.5,0,1,0,1.5-0.1
	C404.4,116,404.5,115.7,403.7,115.3 M478.6,226.8c-0.4-0.5-0.7-1.1-1.1-1.6c-0.1-0.1-0.2-0.1-0.3-0.2c0,0.2-0.1,0.4-0.1,0.5
	c0.4,0.5,0.4,0.8-0.4,0.8c-0.1,0-0.3,0.2-0.4,0.3c0.2,0.1,0.3,0.2,0.5,0.2C477.5,226.9,478,226.9,478.6,226.8 M301.7,126.4
	c0.1-0.4,0.1-0.8,0.2-1.1c-0.2,0.1-0.6,0.2-0.7,0.4c-0.2,0.5-0.2,1-0.3,1.5C301.2,127,301.4,126.8,301.7,126.4 M371.1,116.5
	c-0.4,0.2-0.8,0.4-1.2,0.7c-0.3,0.2-0.5,0.5-0.7,0.8c-0.1,0.1-0.3,0.3-0.5,0.4c0.3,0,0.6,0.1,0.8,0
	C370.1,117.8,370.6,117.2,371.1,116.5 M226.7,83.8c-0.1,0.1-0.2,0.2-0.4,0.4c-0.2,0.2-0.4,0.4-0.5,0.5c0.3,0.1,0.6,0.2,0.8,0.1
	c0.3,0,0.5-0.2,0.7-0.4c0.2-0.2,0.3-0.5,0.5-0.8C227.5,83.7,227.2,83.8,226.7,83.8 M227.1,234.8c-0.3-0.1-0.5-0.2-0.8-0.2
	c0.2,0.5,0.4,0.9,0.6,1.4c0.1,0.1,0.3,0.1,0.4,0.1C227.3,235.7,227.3,235.3,227.1,234.8 M229.7,221.7c0.1-0.2,0.1-0.4,0.1-0.6
	c0-0.1-0.3-0.2-0.3-0.2c-0.4,0.4-0.8,0.9-1.1,1.3c0,0.1,0.1,0.3,0.1,0.4C228.9,222.4,229.3,222.2,229.7,221.7 M207.2,105.2
	c-1-1.7-0.6,0.7-1.2,0.4c-0.1,0.2-0.1,0.4-0.2,0.6c0.2,0,0.5,0,0.7-0.1C206.8,105.9,207,105.7,207.2,105.2 M455.7,172
	c-0.1,0.2-0.3,0.3-0.3,0.5c0.1,0.9,0.8,0.7,1.3,0.7c0.2,0,0.4-0.1,0.5-0.2c-0.2-0.1-0.5-0.3-0.7-0.4
	C456.3,172.4,456.1,172.3,455.7,172 M180.6,269.8c-0.1,0.4-0.3,0.8-0.3,1.3c0,0.1,0.4,0.3,0.6,0.3c0.2,0,0.5-0.3,0.5-0.3
	C181.3,270.6,181,270.2,180.6,269.8 M203.9,252.2c0-0.2,0-0.5,0-0.5c-0.6-0.2-1.2-0.4-1.8-0.5c-0.1,0-0.3,0.1-0.4,0.1
	c0,0.1,0,0.3,0.1,0.3C202.4,251.9,203,252.1,203.9,252.2 M404.6,192.7c0.2-0.4,0.5-0.8,0.7-1.2c-0.3-0.1-0.6-0.1-0.9-0.2
	C404.5,191.7,404.5,192.1,404.6,192.7 M299.5,217.9c0,0.5-0.1,1-0.1,1.5c0,0.1,0.1,0.2,0.1,0.3c0.2-0.3,0.5-0.6,0.6-0.9
	C300.3,218.3,300.1,217.9,299.5,217.9 M438.6,188.1c0,0.2,0.1,0.5,0.1,0.7c0.1,0.2,0.2,0.4,0.3,0.6c0.1-0.2,0.2-0.4,0.2-0.6
	c0-0.6,0-1.1-0.1-1.7c0-0.1-0.3-0.1-0.5-0.1C438.5,187.3,438.5,187.6,438.6,188.1 M321.9,127.7c-0.2-0.3-0.3-0.6-0.5-0.9
	c-0.2,0.2-0.5,0.4-0.6,0.7c0,0.3,0.2,0.6,0.3,0.9C321.4,128.2,321.7,128.1,321.9,127.7 M197.2,254c0-0.3-0.1-0.6-0.1-0.9
	c-0.3,0.2-0.6,0.4-0.9,0.6c0.3,0.4,0.6,0.8,0.8,1.2C197.1,254.6,197.2,254.4,197.2,254 M254.6,50.2c0.1-0.6,0.1-1.3,0.2-1.9
	c-0.1,0-0.4,0.1-0.4,0.1C254.3,49,254.4,49.7,254.6,50.2 M407.5,192.7c-0.3-0.1-0.5-0.2-0.8-0.2c-0.1,0.3-0.2,0.6-0.2,0.9
	c0,0.2,0.3,0.3,0.5,0.5C407.2,193.5,407.4,193.2,407.5,192.7 M219.7,238.5c0-0.2,0-0.4,0-0.5c-0.3,0.3-0.7,0.6-1,0.9
	c-0.1,0.1,0.3,0.5,0.4,0.8C219.3,239.4,219.5,239.1,219.7,238.5 M488.5,239.5c0.1-0.1,0.1-0.2,0.2-0.4c-0.6-0.2-1.2-0.4-1.8-0.5
	c0,0-0.1,0.2-0.2,0.3c0.5,0.2,1,0.5,1.6,0.7C488.2,239.7,488.3,239.7,488.5,239.5 M253.1,53.5c-0.1,0-0.3,0-0.4,0
	c-0.3,0.1-0.5,0.2-0.8,0.3c0.4,0.2,0.7,0.5,1.1,0.7C253.1,54.2,253.2,53.9,253.1,53.5 M290.7,126.1c0.7,0.7,1.1-0.2,1.6-0.3
	c0,0,0.1-0.2,0.1-0.3c-0.4,0-0.8,0-1.2,0C291,125.5,290.9,125.7,290.7,126.1 M226.7,238.1c0.4,0,0.7,0,1.1,0
	c-0.1-0.2-0.1-0.4-0.3-0.4c-0.5-0.1-0.9-0.2-1.4-0.3C226.2,237.6,226.3,237.9,226.7,238.1 M491.5,235.5c-0.1,0.3-0.2,0.7-0.1,0.9
	c0.1,0.2,0.5,0.3,0.8,0.4c0-0.1,0.1-0.3,0-0.3C491.8,236.2,492.7,235.2,491.5,235.5 M465.9,196.9c-0.2-0.3-0.5-0.6-0.7-0.9
	c-0.2,0.3-0.4,0.6-0.6,0.9C465,196.9,465.4,197,465.9,196.9 M269,206.3c0.1,0.8,0.7,0.7,1.2,0.6c0.2,0,0.2-0.4,0.3-0.6
	c-0.4,0-0.9-0.1-1.3-0.1C269.2,206.2,269.2,206.2,269,206.3 M430.4,147.7c-0.2-0.5-0.3-1-0.5-1.5c0,0-0.3,0.1-0.5,0.1
	c0.2,0.4,0.4,0.8,0.6,1.3C430.1,147.7,430.1,147.7,430.4,147.7 M271.2,207.5c-0.2,0.2-0.4,0.5-0.6,0.7c0.2,0.1,0.4,0.3,0.5,0.3
	c0.3-0.1,0.6-0.3,0.7-0.5c0.1-0.3-0.1-0.7-0.2-1C271.6,207.1,271.4,207.2,271.2,207.5 M437,211.1c0.2-0.2,0.3-0.3,0.5-0.5
	c0.2-0.2,0.4-0.4,0.7-0.5c-0.1-0.1-0.3-0.3-0.4-0.3c-0.3,0-0.8,0-0.9,0.2C436.7,210.3,436.8,210.7,437,211.1 M439.2,122
	c-0.1-0.4-0.1-0.8-0.2-1.2c-0.1,0-0.2,0-0.2,0c0,0.4,0.1,0.8,0.2,1.2c0,0.1,0,0.3,0,0.4c0.1,0.3,0.1,0.5,0.2,0.8
	c0.1-0.1,0.4-0.2,0.4-0.2C439.5,122.6,439.4,122.4,439.2,122 M439.6,194.6c-0.1-0.3-0.3-0.5-0.4-0.8c-0.2,0.2-0.4,0.4-0.5,0.6
	c0,0.3,0.1,0.6,0.2,0.9C439.1,195.2,439.3,195,439.6,194.6 M364.7,121.8c0-0.4,0.1-0.8,0.1-1.2c-0.3,0.1-0.7,0.1-0.8,0.3
	C363.9,121.3,363.6,121.8,364.7,121.8 M323.1,204.6c0.3-0.9-0.4-0.8-0.9-0.8c-0.3,0-0.5,0.2-0.7,0.3c0.4,0.1,0.8,0.3,1.1,0.4
	C322.6,204.6,322.7,204.6,323.1,204.6 M240.3,226.8c0.3-0.2,0.7-0.3,1-0.5c0.1-0.1,0-0.4,0-0.6c-0.2,0-0.5-0.1-0.5,0
	C240.5,226.1,240.4,226.4,240.3,226.8 M452.6,170.9c0.4,0.4,0.7,0.7,1.1,1.1c0.1,0.1,0.2,0.1,0.3,0.1c0.1,0,0.2-0.2,0.2-0.3
	C454.2,171.2,453.4,170.6,452.6,170.9 M425.9,111.2c0.5,0.1,0.9,0.2,1.4,0.1c0.2,0,0.4-0.3,0.6-0.5c-0.3,0-0.5-0.1-0.8,0
	C426.7,110.9,426.3,111,425.9,111.2 M332.1,128.8c0.2,0,0.4,0.1,0.6,0.1c0-0.4,0-0.8-0.1-1.1c0-0.1-0.3-0.2-0.5-0.3
	C332.1,127.8,332.1,128.1,332.1,128.8 M310.5,127.8c0,0.3,0.1,0.5,0.1,0.8c0.3-0.2,0.6-0.3,0.8-0.5c0.1-0.1,0-0.4,0-0.7
	C311.2,127.6,310.9,127.6,310.5,127.8 M442.9,230.4c0,0.4,0,0.8,0,1.1c0,0.1,0.3,0.2,0.4,0.3c0.1-0.3,0.4-0.7,0.3-1
	C443.6,230.6,443.2,230.4,442.9,230.4 M254,106.2c0.4,0.3,0.7,0.7,1.1,1c-0.2-0.4-0.3-0.8-0.5-1.2c-0.1-0.2-0.2-0.3-0.3-0.5
	C254.3,105.7,254.2,105.8,254,106.2 M441.3,193.5c-0.3-0.3-0.6-0.6-1-0.9c-0.1,0.2-0.2,0.4-0.3,0.6
	C440.4,193.4,440.5,194.3,441.3,193.5 M350.7,202.6c-0.1,0.1-0.2,0.2-0.3,0.3c0.4,0.1,0.8,0.3,1.2,0.3c0.1,0,0.2-0.4,0.3-0.6
	C351.6,202.6,351.2,202.5,350.7,202.6 M469.7,213.2c-0.2,0.3-0.4,0.7-0.6,1c0.3,0,0.7-0.1,1-0.1
	C470.1,213.8,470.1,213.5,469.7,213.2 M245.1,68.8c-0.2,0.2-0.3,0.4-0.5,0.5c0.3,0.1,0.6,0.4,0.9,0.3c0.2-0.1,0.3-0.5,0.5-0.8
	C245.7,68.8,245.5,68.7,245.1,68.8 M255.8,113.2c-0.1,0-0.3,0-0.4,0c-0.3,0.1-0.5,0.2-0.8,0.4c0.1,0.1,0.3,0.4,0.4,0.4
	c0.5,0,0.9-0.1,1.4-0.1C256.2,113.7,256,113.5,255.8,113.2 M243.8,54.6c-0.3-0.9-0.6-0.2-0.8,0c-0.2,0.2-0.1,0.6-0.2,0.9
	C243.2,55.3,243.5,55.1,243.8,54.6 M423.5,193.5c0,0.5,0,1,0,1.4c0,0.1,0.1,0.2,0.2,0.3c0.1,0,0.3-0.1,0.3-0.1
	C424,194.4,424.7,193.7,423.5,193.5 M248.8,60.4c0.2-0.4,0.4-0.8,0.5-1.2c0,0-0.2-0.1-0.3-0.2c-0.1,0.4-0.3,0.7-0.4,1.1
	C248.5,60.1,248.6,60.2,248.8,60.4 M488.1,235.7c0.2,0,0.4,0,0.5,0c0.2-0.1,0.4-0.2,0.7-0.3c-0.3-0.2-0.5-0.4-0.8-0.4
	C488.3,235,488.1,235.4,488.1,235.7 M429,192.1c-0.3-0.1-0.8-0.3-0.8-0.1c-0.2,0.3-0.3,0.7-0.4,1c0.3-0.2,0.5-0.3,0.8-0.5
	C428.7,192.5,428.8,192.4,429,192.1 M245.5,62.6c-0.1,0.2-0.3,0.4-0.4,0.6c-0.1,0.3,0,0.5,0,0.8c0.3-0.2,0.6-0.3,0.8-0.5
	C246,63.4,245.8,63,245.5,62.6 M401.1,191.7c0.3,0,0.6,0,0.9,0.1c-0.2-0.3-0.4-0.7-0.6-1C401.3,191,401.1,191.3,401.1,191.7
	 M348.7,123.9c0.2,0.2,0.3,0.6,0.5,0.7c0.2,0.1,0.6-0.1,0.9-0.2c-0.2-0.2-0.3-0.4-0.5-0.5C349.4,123.8,349.1,123.8,348.7,123.9
	 M298.3,128c-0.1,0.3-0.1,0.6-0.2,0.9c0.3-0.1,0.6-0.1,0.8-0.2c0.2-0.1,0.3-0.4,0.4-0.6C299.1,128,298.7,127.9,298.3,128
	 M252.5,187.2c-0.2,0.3-0.4,0.7-0.6,1c0.4-0.2,0.7-0.3,1.1-0.5C252.9,187.5,252.7,187.3,252.5,187.2 M436.6,122.7
	c-0.1,0-0.3-0.1-0.4-0.1c0.1,0.4,0.3,0.8,0.5,1.1c0.1,0.1,0.3,0.2,0.5,0.2c0-0.2,0-0.4,0-0.6C437,123.3,436.9,123.1,436.6,122.7
	 M383.6,116.8c-0.4-0.1-0.9-0.2-1.3-0.2c-0.1,0-0.4,0.2-0.4,0.3C381.9,117.2,383.4,117.2,383.6,116.8 M264.8,209.4
	c0.1-0.3,0.1-0.6,0.2-0.9c-0.2,0-0.6,0-0.7,0.1c-0.2,0.2-0.2,0.5-0.3,0.8C264.2,209.5,264.4,209.5,264.8,209.4 M428.3,111.9
	c-0.1,0.3-0.2,0.7-0.3,1c0.2,0,0.4,0.1,0.5,0.1c0.2-0.3,0.3-0.7,0.5-1C428.8,111.8,428.7,111.8,428.3,111.9 M436.9,213.4
	c0.2-0.4,0.4-0.7,0.5-1.1c0-0.1-0.3-0.2-0.5-0.4c-0.1,0.3-0.2,0.6-0.3,1C436.6,213,436.7,213.1,436.9,213.4 M222.1,95
	c0-0.4-0.1-0.8-0.1-1.2c-0.2,0-0.4,0-0.6,0.1C221.6,94.3,221.8,94.7,222.1,95 M292.4,129.7c-0.2,0-0.4,0-0.6,0.1
	c-0.2,0.1-0.4,0.3-0.6,0.5c0.3,0.1,0.6,0.2,0.9,0.1C292.3,130.4,292.4,130,292.4,129.7 M314.4,206.7c-0.3-0.3-0.7-0.5-1-0.8
	c0.1,0.3,0.1,0.7,0.3,0.9C313.9,206.9,314.3,206.8,314.4,206.7 M184.5,268c0.1,0.1,0.2,0.3,0.4,0.3c0.2,0.1,0.3,0.1,0.5,0.1
	c0-0.2,0-0.6-0.1-0.7c-0.2-0.2-0.6-0.3-0.9-0.4C184.4,267.5,184.4,267.7,184.5,268 M247.5,63c0.2-0.4,0.4-0.7,0.5-1.1
	c0-0.1-0.1-0.2-0.2-0.3c-0.3,0.3-0.6,0.6-0.8,1C247,62.7,247.3,63.1,247.5,63 M475.9,218.9c-0.1,0.1-0.2,0.2-0.3,0.3
	c0.4,0.1,0.7,0.3,1.1,0.4c0.1,0,0.3-0.3,0.4-0.4C476.8,219,476.4,218.8,475.9,218.9 M235.2,228.5c0.1,0.2,0.3,0.4,0.4,0.6
	c0.1-0.2,0.4-0.5,0.3-0.7c-0.1-0.3-0.4-0.5-0.6-0.8C235.3,227.8,235.3,228.1,235.2,228.5 M297.4,233.7c-0.4,0.1-0.7,0.2-1.1,0.3
	c0,0,0.1,0.4,0.1,0.6c0.2-0.1,0.5-0.3,0.7-0.4C297.3,234,297.4,233.9,297.4,233.7 M293.5,240.2c-0.8-0.8-0.8,0.3-1.2,0.5
	c0,0,0,0.2,0,0.3c0.4-0.1,0.7-0.2,1.1-0.4C293.4,240.6,293.5,240.4,293.5,240.2 M284.6,249.4c-0.3,0-0.6,0.1-0.9,0.1
	c0,0.3,0.1,0.6,0.1,0.9c0.2-0.2,0.4-0.4,0.6-0.6C284.5,249.7,284.6,249.6,284.6,249.4 M432.9,189.3c0.1,0.3,0.1,0.6,0.2,0.9
	c0.2-0.2,0.6-0.4,0.7-0.7C433.9,188.7,433.4,188.8,432.9,189.3 M482.6,240.2c0.4,0.1,0.8,0.3,1.2,0.4c-0.1-0.2-0.2-0.5-0.2-0.5
	C483.1,240.2,482.8,239.1,482.6,240.2 M257.8,63.4c0.1,0.3,0.2,0.6,0.4,0.9c0.1,0.1,0.3,0,0.5,0.1C258.7,63.8,259,63.1,257.8,63.4
	 M438.7,209.2c0.2,0.3,0.5,0.6,0.7,0.9c0.1-0.1,0.2-0.2,0.3-0.3c-0.3-0.2-0.5-0.5-0.8-0.7C438.9,209,438.9,209,438.7,209.2
	 M322.5,208.2c0-0.4,0-0.9,0-1.3c-0.1,0.1-0.4,0.2-0.4,0.3C322.2,207.6,322.2,207.9,322.5,208.2 M437.8,125c0.2,0.4,0.4,0.9,0.6,1.3
	c0,0,0.2-0.1,0.3-0.1C438.5,125.7,438.3,125.4,437.8,125 M363.5,195.8c0.4,0.2,0.8,0.4,1.2,0.6c0-0.1,0-0.4,0-0.4
	C364.4,195.9,364,195.8,363.5,195.8 M478.6,230.5c0.2,0,0.5,0,0.7,0.1c0-0.1,0.1-0.3,0-0.4c-0.3-0.2-0.6-0.3-1-0.5
	C478.4,230,478.4,230.2,478.6,230.5 M247.9,88.8c0.4-0.1,0.7-0.2,1.1-0.3c0.1,0,0-0.3,0-0.4c-0.3,0.1-0.7,0.2-1,0.3
	C247.9,88.5,247.9,88.6,247.9,88.8 M392.3,115.9c0.2,0.2,0.4,0.3,0.5,0.5c0.1-0.3,0.2-0.7,0.2-1
	C392.9,115.5,392.6,115.6,392.3,115.9 M305.1,218.1c0.1-0.4,0.1-0.8,0.2-1.2c-0.2,0.1-0.5,0.2-0.5,0.2
	C304.8,217.5,304.9,217.8,305.1,218.1 M294,128.1c-0.3,0.2-0.6,0.4-0.9,0.6c0.4,0.1,0.7,0.1,1.1,0.2
	C294.1,128.7,294.1,128.5,294,128.1 M206.8,249.1c0.6,0.1,0.8-0.2,0.6-0.7c0-0.2-0.3-0.4-0.4-0.6
	C206.9,248.2,206.8,248.6,206.8,249.1 M433.6,172.6c-0.2,0.3-0.4,0.7-0.6,1c0,0,0.2,0.2,0.3,0.3c0.2-0.3,0.3-0.7,0.5-1
	C433.7,172.9,433.7,172.8,433.6,172.6 M319.9,205.1c0.4-0.1,0.8-0.2,1.1-0.4c-0.1-0.1-0.4-0.4-0.4-0.4
	C320.4,204.5,320.1,204.8,319.9,205.1 M243.4,224c0-0.2,0-0.3,0-0.5c-0.3,0.4-0.5,0.7-0.8,1.1c0,0,0.1,0.1,0.2,0.2
	C243,224.5,243.2,224.3,243.4,224 M283.5,257.7c-0.1,0.3-0.2,0.7-0.2,1.1c0,0,0.2,0.1,0.3,0.2c0.1-0.3,0.2-0.7,0.3-1
	C283.9,257.9,283.8,257.8,283.5,257.7 M345.1,124.2c-0.2,0.1-0.5,0.2-0.6,0.4c-0.1,0.2,0.1,0.4,0.1,0.7
	C344.8,124.9,345,124.6,345.1,124.2 M289.1,246.9c0.1-0.4,0.1-0.8,0.2-1.2c-0.1,0-0.4,0.1-0.4,0.1
	C288.9,246.3,289,246.6,289.1,246.9 M332,205.6c-0.4,0-0.7,0-1.1,0c0,0.1,0.1,0.4,0.1,0.3C331.4,205.9,331.7,205.8,332,205.6
	 M195.9,256.6c-0.4,0.1-0.9,0.2-1.3,0.3c0,0.1,0.1,0.2,0.1,0.3C195.1,257.1,195.5,256.9,195.9,256.6 M441.3,189.3
	c-0.1-0.2-0.1-0.4-0.2-0.7c-0.2,0.1-0.5,0.2-0.6,0.4c0,0.2,0.1,0.5,0.2,0.8C441,189.7,441.1,189.6,441.3,189.3 M442.1,181.1
	c0-0.4,0-0.7,0-1.1c0,0-0.3,0-0.4,0c0.1,0.4,0.1,0.7,0.2,1.1C441.8,181.2,441.9,181.2,442.1,181.1 M319.8,206.5
	c-0.4,0-0.8-0.1-1.2-0.1c0,0-0.1,0.3-0.1,0.4C318.9,206.8,319.3,206.7,319.8,206.5 M217.1,94.7c-0.3,0.2-0.7,0.4-1,0.5
	c0.1,0.1,0.1,0.2,0.2,0.4C216.6,95.4,216.8,95.2,217.1,94.7 M228.5,141.2c-0.2,0-0.4-0.1-0.5,0c-0.2,0.2-0.4,0.4-0.7,0.6
	c0.3,0,0.7,0.1,1,0C228.5,141.8,228.6,141.5,228.5,141.2 M481.3,239.2c-0.1-0.3-0.3-0.5-0.4-0.8c-0.2,0.2-0.3,0.3-0.5,0.5
	C480.6,239,480.9,239.1,481.3,239.2 M223.8,239.7c0.2-0.3,0.4-0.6,0.6-0.9c0-0.1,0-0.3,0-0.3c-0.1-0.1-0.3-0.1-0.3-0.1
	C223.9,238.8,223.8,239.2,223.8,239.7 M208.7,103.9c0.4,0.6,0.7,0.2,0.9-0.1c0.1-0.2-0.1-0.5-0.1-0.7
	C209.3,103.3,209.1,103.5,208.7,103.9 M434.1,114c0-0.3-0.1-0.5-0.1-0.8c-0.3,0.2-0.5,0.4-0.8,0.6C433.5,113.9,433.7,114,434.1,114
	 M256.3,212.4c0-0.3-0.1-0.5-0.1-0.8c-0.3,0.2-0.5,0.4-0.8,0.6C255.6,212.4,255.9,212.5,256.3,212.4 M365.5,118.2
	c0.3-0.3,0.6-0.6,0.9-0.9c-0.1,0-0.4-0.2-0.4-0.1C365.8,117.4,365.6,117.7,365.5,118.2 M289,242c-0.4,0.2-0.8,0.4-1.1,0.6
	c0.1,0.1,0.2,0.2,0.3,0.4c0.3-0.3,0.6-0.5,0.9-0.8C289.1,242.2,289.1,242.2,289,242 M438,192.5c0,0.4-0.1,0.8-0.1,1.2
	c0,0,0.3,0.1,0.4,0.1C438.3,193.4,438.2,193,438,192.5 M358.9,118.4c0,0.3-0.1,0.6-0.1,0.9c0.2,0,0.4,0,0.5,0
	C359.3,119,359.2,118.7,358.9,118.4 M352.5,201.6c0-0.4,0-0.7,0-1.1c-0.1,0-0.3,0-0.3,0c0,0.4,0,0.7,0.1,1.1
	C352.3,201.6,352.4,201.7,352.5,201.6 M427.6,174.7c-0.2,0.1-0.5,0.2-0.6,0.4c-0.1,0.1,0.2,0.4,0.3,0.6
	C427.4,175.4,427.5,175.1,427.6,174.7 M444.1,191.2c0.1-0.2,0.2-0.4,0.2-0.5c-0.2-0.1-0.5-0.2-0.5-0.2c-0.2,0.2-0.3,0.5-0.4,0.7
	C443.6,191.3,443.8,191.3,444.1,191.2 M443.8,204.3c-0.2,0.1-0.5,0.2-0.6,0.4c-0.1,0.1,0.2,0.4,0.3,0.6
	C443.6,205,443.8,204.7,443.8,204.3 M324.6,128.9c-0.1,0.1-0.2,0.2-0.4,0.4c0.1,0,0.3,0.2,0.4,0.1c0.3-0.3,0.6-0.6,0.9-0.9
	c0.1-0.1,0.1-0.2,0.2-0.3c-0.1,0-0.3,0-0.4,0C325.1,128.4,324.9,128.6,324.6,128.9 M242.4,73.1c0,0.2,0.1,0.3,0.1,0.5
	c0.2-0.1,0.5-0.2,0.5-0.3c0-0.2-0.1-0.5-0.2-0.7C242.7,72.7,242.6,72.8,242.4,73.1 M390.6,118.2c0.4-0.2,0.8-0.4,1.1-0.6
	c-0.1-0.1-0.2-0.3-0.2-0.3c-0.4,0.2-0.7,0.4-1.1,0.6C390.5,117.9,390.5,118,390.6,118.2 M338.3,123.9c-0.3,0-0.6,0-0.9,0
	c-0.1,0-0.3,0.1-0.3,0.2c0,0.1,0.1,0.3,0.1,0.3C337.6,124.3,338,124.2,338.3,123.9 M253.8,190.8c-0.2-0.1-0.5-0.1-0.7-0.2
	c-0.2,0-0.4,0-0.6-0.1c0.1,0.2,0.2,0.6,0.4,0.6C253.1,191.2,253.4,191,253.8,190.8 M418,112.3c-0.3-0.2-0.6-0.4-0.9-0.7
	c-0.1,0.1-0.1,0.2-0.2,0.3C417.3,112.1,417.6,112.2,418,112.3 M278.3,274.3c-0.1,0.4-0.2,0.8-0.4,1.2c0,0,0.2,0.1,0.3,0.1
	c0.1-0.3,0.1-0.6,0.2-0.9C278.4,274.6,278.4,274.5,278.3,274.3 M284.7,246.4c0.1,0.2,0.2,0.4,0.4,0.6c0.1,0.1,0.3,0,0.4-0.1
	c-0.2-0.3-0.3-0.7-0.5-1C284.9,245.9,284.8,246,284.7,246.4 M470.4,199.7c-0.1-0.3-0.2-0.6-0.3-0.9c0,0-0.3,0.1-0.4,0.1
	C469.8,199.2,470,199.6,470.4,199.7 M479.7,228.2c0.3-0.1,0.6-0.1,0.9-0.2c0,0,0-0.3-0.1-0.5c-0.2,0.1-0.5,0.2-0.7,0.3
	C479.7,227.8,479.6,227.9,479.7,228.2 M195.3,258.8c0-0.2,0.1-0.5,0.1-0.7c-0.2,0.3-0.5,0.5-0.7,0.8c-0.1,0.1,0.1,0.4,0.1,0.6
	C194.9,259.3,195,259.1,195.3,258.8 M341.8,124c-0.2-0.1-0.5-0.2-0.7-0.3c0,0.1-0.1,0.3,0,0.3c0.3,0.2,0.6,0.4,0.9,0.7
	C341.9,124.5,341.9,124.4,341.8,124 M194.2,114.7c-0.1-0.3-0.1-0.6-0.2-1c-0.1,0.1-0.3,0.1-0.3,0.2
	C193.8,114.2,193.9,114.5,194.2,114.7 M282.9,255.3c0.1-0.3,0.1-0.6,0.2-0.9c-0.2,0.1-0.5,0.2-0.5,0.2
	C282.5,254.9,282.6,255.1,282.9,255.3 M406.7,114.4c-0.2,0.2-0.3,0.4-0.5,0.5c0.3,0,0.6,0.1,0.9,0.1
	C407,114.7,406.9,114.5,406.7,114.4 M273.8,125c0.2-0.1,0.4-0.1,0.5-0.3c0.1-0.1,0.2-0.4,0.2-0.5c-0.2,0-0.5,0-0.6,0.2
	C273.8,124.4,273.8,124.7,273.8,125 M468,211.5c0.3-0.1,0.5-0.2,0.8-0.4c0.2-0.1,0.3-0.3,0.5-0.4c-0.2,0-0.5,0-0.7,0
	C468.4,210.8,468.2,211.1,468,211.5 M237.8,52.3c-0.2,0.1-0.3,0.2-0.5,0.3c0.1,0.2,0.2,0.4,0.4,0.6
	C237.8,52.9,237.8,52.7,237.8,52.3 M363.3,119.6c-0.3,0.1-0.5,0.3-0.8,0.4c0.1,0.1,0.2,0.3,0.3,0.4
	C363,120.2,363.2,119.9,363.3,119.6 M441.3,212.6c0.3,0.2,0.7,0.4,1,0.6c0-0.1,0.1-0.3,0-0.3C442,212.7,441.7,212.6,441.3,212.6
	 M473,219.6c-0.2-0.2-0.4-0.4-0.6-0.7c-0.1,0.1-0.2,0.4-0.2,0.4C472.5,219.6,472.7,219.7,473,219.6 M324.5,206.5
	c-0.4-0.1-0.8-0.2-1.2-0.4c0,0.1-0.1,0.2-0.1,0.3c0.4,0.1,0.7,0.1,1.1,0.2C324.3,206.7,324.3,206.7,324.5,206.5 M436.7,219.5
	c0.3,0,0.5,0,0.8,0c0,0,0-0.3,0-0.4C437.2,219.2,436.9,219.3,436.7,219.5 M337.1,204.7c-0.3,0.1-0.5,0.2-0.8,0.3
	c0.2,0.1,0.4,0.2,0.6,0.4C337,205.2,337.1,205,337.1,204.7 M434.4,116.3c-0.1,0.1-0.2,0.3-0.4,0.4c0.2,0.1,0.4,0.2,0.6,0.4
	C434.6,116.8,434.6,116.6,434.4,116.3 M242.8,65.6c-0.2,0.1-0.4,0.2-0.5,0.4c0,0.1,0.2,0.3,0.3,0.5
	C242.7,66.3,242.7,66.1,242.8,65.6 M234.7,218.1c0.3,0,0.5,0,0.8,0c0,0,0-0.3,0-0.4C235.3,217.7,235,217.8,234.7,218.1 M203.5,107.3
	c0.1,0.2,0.1,0.4,0.2,0.7c0.1-0.2,0.3-0.4,0.3-0.5C203.9,107.3,203.7,107.2,203.5,107.3 M209.9,246.7c-0.1,0.3-0.2,0.6-0.4,0.9
	c0.1,0,0.2,0.1,0.3,0.1C209.9,247.5,210,247.2,209.9,246.7 M344.7,122.5c-0.1-0.2-0.3-0.4-0.4-0.6c0,0-0.2,0.1-0.4,0.2
	C344.1,122.2,344.3,122.4,344.7,122.5 M388.8,118.2c-0.3,0.1-0.6,0.1-0.9,0.2c0,0.1,0.1,0.2,0.1,0.3
	C388.3,118.5,388.6,118.4,388.8,118.2 M416.4,192.9c0.3,0,0.5,0,0.8,0c0,0,0-0.3,0-0.4C417,192.6,416.8,192.7,416.4,192.9
	 M245.5,223.2c-0.2,0.2-0.4,0.4-0.7,0.6c0.1,0.1,0.3,0.2,0.4,0.2C245.4,223.8,245.5,223.5,245.5,223.2 M197.1,111.3
	c-0.3,0.2-0.6,0.3-0.9,0.5c0,0,0.1,0.2,0.1,0.3c0.3-0.2,0.5-0.4,0.8-0.6C197.2,111.5,197.2,111.5,197.1,111.3 M280.5,125.1
	c-0.2,0.2-0.3,0.4-0.5,0.5c0.2,0.1,0.3,0.2,0.5,0.3C280.5,125.7,280.6,125.5,280.5,125.1 M442.1,199.5c-0.2,0.2-0.3,0.4-0.5,0.5
	c0.3,0,0.6-0.1,0.9-0.1C442.4,199.7,442.3,199.5,442.1,199.5 M469.7,195.7c0-0.3,0-0.7,0-1c0,0-0.2,0-0.2,0
	C469.5,195,469.5,195.3,469.7,195.7 M228.3,227.9c-0.1-0.2-0.2-0.4-0.4-0.5c-0.1,0-0.3,0.2-0.5,0.3
	C227.6,227.8,227.8,227.8,228.3,227.9 M238.1,228c0.3,0,0.5,0,0.8,0c0,0,0-0.3,0-0.4C238.7,227.7,238.4,227.8,238.1,228
	 M370.2,119.7c-0.1,0.1-0.2,0.3-0.3,0.4c0.3,0,0.6,0,1,0C370.7,120,370.6,119.9,370.2,119.7 M330.4,126c0-0.3-0.1-0.5-0.1-0.8
	c-0.2,0-0.3,0.1-0.5,0.1C329.9,125.5,330,125.8,330.4,126 M420.1,196.6c0.2-0.1,0.5-0.3,0.7-0.4c0,0-0.2-0.3-0.2-0.4
	C420.4,195.9,420.2,196.1,420.1,196.6 M478,233.3c-0.2,0.1-0.3,0.2-0.5,0.4c0.2,0.1,0.3,0.3,0.5,0.4C478,233.9,478,233.7,478,233.3
	 M472.9,211.9c-0.2,0-0.4,0.1-0.6,0.1c0.1,0.2,0.2,0.4,0.3,0.6C472.7,212.4,472.9,212.2,472.9,211.9 M363.5,197.9
	c-0.2-0.1-0.4-0.2-0.5-0.2c0,0.2-0.1,0.4-0.1,0.6C363,198.2,363.2,198.1,363.5,197.9 M189.9,259.5c0.2,0.1,0.5,0.2,0.7,0.3
	c0-0.2,0-0.4,0-0.6C190.4,259.2,190.2,259.3,189.9,259.5 M295.4,236.1c-0.1,0.2-0.2,0.4-0.2,0.5c0.2,0,0.4-0.1,0.6-0.1
	C295.7,236.4,295.6,236.2,295.4,236.1 M243.4,71.3c-0.2,0.1-0.4,0.1-0.7,0.2c0.1,0.2,0.2,0.3,0.3,0.5
	C243.3,71.8,243.4,71.6,243.4,71.3 M263.3,76.8c-0.2,0.2-0.4,0.3-0.6,0.5c0.2,0.1,0.3,0.2,0.5,0.3C263.3,77.3,263.4,77.1,263.3,76.8
	 M409.8,113.4c0.1-0.3,0.2-0.6,0.4-0.9c-0.1,0-0.2-0.1-0.3-0.1C409.7,112.7,409.7,113,409.8,113.4 M242.1,77
	c-0.1,0.3-0.3,0.5-0.4,0.8c0,0,0.1,0.1,0.2,0.2C242,77.7,242.2,77.5,242.1,77 M321.6,206.3c-0.2-0.1-0.4-0.3-0.6-0.4
	c-0.1,0.1-0.1,0.3-0.2,0.4C321.1,206.3,321.3,206.4,321.6,206.3 M314.3,210.2c-0.2,0-0.4-0.1-0.4-0.1c-0.1,0.2-0.1,0.4-0.1,0.5
	C313.9,210.6,314.1,210.6,314.3,210.2 M259.3,81.9c-0.1-0.3-0.1-0.6-0.2-0.9c-0.1,0-0.2,0.1-0.3,0.1C258.9,81.4,259,81.7,259.3,81.9
	 M423.5,109.4c-0.3-0.1-0.6-0.2-0.9-0.4c0,0.1-0.1,0.2-0.1,0.3C422.8,109.4,423.1,109.5,423.5,109.4 M385.5,116.5
	c-0.2-0.1-0.4-0.2-0.5-0.2c0,0.2,0,0.3,0,0.5C385.2,116.6,385.4,116.6,385.5,116.5 M284.3,244.1c0,0.3,0,0.6,0.1,0.9
	c0,0,0.2,0.1,0.3,0.1C284.6,244.8,284.6,244.4,284.3,244.1 M184.4,269.4c0.2,0.1,0.4,0.2,0.5,0.2c0-0.2,0.1-0.4,0.1-0.6
	C184.9,269.1,184.7,269.2,184.4,269.4 M467.8,208.1c-0.1-0.1-0.2-0.3-0.3-0.4c-0.1,0.2-0.1,0.3-0.2,0.5
	C467.4,208.3,467.6,208.3,467.8,208.1 M374,116.2c-0.2-0.1-0.4-0.3-0.6-0.4c-0.1,0.1-0.2,0.2-0.2,0.4
	C373.4,116.2,373.7,116.3,374,116.2 M472.9,225.8c-0.1-0.2-0.3-0.3-0.4-0.5c-0.1,0.1-0.2,0.2-0.2,0.2
	C472.4,225.6,472.6,225.8,472.9,225.8 M284.8,254.3c-0.1-0.2-0.3-0.3-0.4-0.5c-0.1,0.1-0.2,0.2-0.2,0.2
	C284.3,254.2,284.5,254.3,284.8,254.3 M237.9,225.8c0.2-0.1,0.4-0.1,0.7-0.2c-0.1-0.1-0.2-0.2-0.2-0.4
	C238.2,225.4,238,225.5,237.9,225.8 M275.1,125.5c0.1,0.2,0.3,0.3,0.4,0.5c0.1-0.1,0.2-0.2,0.2-0.2
	C275.6,125.6,275.4,125.5,275.1,125.5 M192,115.9c0.1,0.1,0.2,0.3,0.3,0.4c0.1-0.2,0.1-0.3,0.2-0.5
	C192.3,115.8,192.2,115.7,192,115.9 M211.5,245.7c0,0.2,0.1,0.3,0.1,0.5c0.2-0.1,0.3-0.1,0.5-0.2C212,245.9,211.9,245.8,211.5,245.7
	 M287.6,124.8c-0.2,0.1-0.3,0.2-0.5,0.3c0.2,0.1,0.4,0.2,0.6,0.4C287.7,125.3,287.7,125.1,287.6,124.8 M335.8,124.3
	c0.2,0.1,0.4,0.3,0.6,0.4c0.1-0.1,0.2-0.2,0.2-0.4C336.3,124.3,336.1,124.2,335.8,124.3 M346.6,123.4c0-0.3,0-0.5,0-0.8
	c0,0-0.2,0-0.2,0C346.4,122.9,346.4,123.1,346.6,123.4 M249.3,191.9c0,0.2,0,0.4,0,0.5c0.2-0.1,0.3-0.2,0.5-0.2
	C249.7,192,249.6,191.9,249.3,191.9 M439.1,191c0.2-0.1,0.4-0.1,0.7-0.2c-0.1-0.1-0.2-0.2-0.2-0.4
	C439.3,190.6,439.1,190.7,439.1,191 M242.3,64.3c0.2,0.1,0.5,0.2,0.7,0.3c0-0.2,0-0.4,0-0.6C242.8,64.1,242.6,64.1,242.3,64.3
	 M307.6,127.3c0.1-0.2,0.3-0.4,0.4-0.6c-0.1-0.1-0.2-0.2-0.4-0.2C307.6,126.8,307.5,127,307.6,127.3 M238.3,229.6
	c0.2,0,0.3-0.1,0.5-0.1c-0.1-0.2-0.1-0.3-0.2-0.5C238.6,229.1,238.4,229.2,238.3,229.6 M457.7,169.2c0.1-0.1,0.3-0.2,0.4-0.3
	c-0.2-0.1-0.3-0.1-0.5-0.2C457.5,168.9,457.5,169.1,457.7,169.2 M443.1,210c-0.2,0-0.3,0.1-0.5,0.1c0.1,0.2,0.1,0.3,0.2,0.5
	C442.9,210.5,443,210.3,443.1,210 M442.6,160.7c0-0.2,0-0.4,0-0.5c-0.2,0.1-0.3,0.2-0.5,0.2C442.3,160.6,442.4,160.7,442.6,160.7
	 M200.8,250.4c0.2,0,0.4,0,0.6-0.1c-0.1-0.1-0.2-0.3-0.3-0.4C200.9,250,200.8,250.2,200.8,250.4 M205.6,250c0.1-0.1,0.1-0.2,0.2-0.3
	c-0.2,0.1-0.5,0.1-0.7,0.2C205.2,250,205.3,250.1,205.6,250 M448.6,236.9c0-0.2,0-0.4,0-0.5c-0.1,0-0.2,0.1-0.4,0.1
	C448.4,236.7,448.4,236.9,448.6,236.9 M324.5,126.4c-0.2,0.1-0.3,0.3-0.5,0.4c0.1,0.1,0.1,0.2,0.2,0.2
	C324.3,126.9,324.4,126.8,324.5,126.4 M251.4,91.6c-0.1-0.1-0.3-0.2-0.4-0.3c0,0.2-0.1,0.4-0.1,0.5C251,91.8,251.3,91.8,251.4,91.6
	 M286.5,127.2c-0.2-0.1-0.4-0.2-0.5-0.2c0,0.1-0.1,0.2-0.1,0.4C286,127.3,286.2,127.3,286.5,127.2 M204.3,105.5
	c-0.2,0.1-0.3,0.3-0.5,0.4c0.1,0.1,0.1,0.2,0.2,0.2C204.1,106,204.2,105.8,204.3,105.5 M202.8,111.3c0.2-0.1,0.4-0.1,0.7-0.2
	c0-0.1-0.1-0.2-0.1-0.3C203.2,111,202.9,111.1,202.8,111.3 M246.5,220.4c-0.1-0.1-0.2-0.3-0.3-0.4c-0.1,0.2-0.1,0.5-0.2,0.7
	C246.1,220.7,246.2,220.6,246.5,220.4 M473.9,217.9c0,0.3,0,0.5,0,0.8c0.1,0,0.2,0,0.3,0C474.2,218.5,474.1,218.3,473.9,217.9
	 M289.4,216.2c-0.2,0.1-0.3,0.2-0.5,0.3c0.1,0.1,0.2,0.2,0.4,0.4C289.4,216.7,289.4,216.5,289.4,216.2z"/>
<path d="M100,63.9c-1,1.2-1.8,2.4-3.2,3.2c-1.6,1-3,2.5-4.4,3.8c-2.2,2-4.5,3.9-6.7,5.9c-1.9,1.8-3.8,3.6-5.5,5.5
	c-1.4,1.5-2.6,3.2-4,4.7c-0.5,0.5-0.9,1.9-2.1,0.7c-0.1,0.1-0.4,0.3-0.4,0.4c1,1.8-0.6,2.9-1.1,4.3c-0.4,1-1.4,1.8-0.3,3
	c0.1,0.1-0.1,0.6-0.2,0.9c0,0.1-0.5,0-0.8-0.2c-0.4-0.2-0.7-0.4-0.9,0.3c-0.3,1-0.8,1.8-1.3,2.7c-0.1,0.2-0.5,0.9-0.8,0.1
	c0-0.1-0.3-0.1-0.4-0.1c0,0.1,0,0.3,0,0.4c0.1,0.8,0.3,1.5,0.4,2.3c0,0.1-0.1,0.4-0.2,0.4c-1.7-0.1-1.6,1.6-2.1,2.4
	c-1.2,2.2-2.1,4.6-3.1,7c-0.3,0.7-0.7,1.6-0.6,2.4c0.2,2.9-1.3,5.3-2.1,7.9c-0.8,2.7-1.3,5.5-1.9,8.3c-0.5,2.6-1,5.1-1.3,7.7
	c-0.1,0.6,0.3,1.4,0.7,2c0.3,0.6,0.6,0.8-0.1,1.4c-0.5,0.4-0.8,1.3-0.8,2c0,1.7,0.1,3.4,0.2,5c0.1,2.3,0.2,4.6,0.2,6.9
	c0,1-0.3,2-0.2,2.9c0.1,1.8,0.3,3.5,0.5,5.3c0.2,1.4,0.3,2.7,0.5,4.1c0.2,1.2,0.3,2.5,0.5,3.7c0.6,3.1,1,6.2,1.8,9.2
	c0.9,3.3,2.2,6.5,4.5,9.1c0.6,0.7,0.6,1.9,1,2.8c0.8,1.7,1.7,3.3,2.6,4.9c0.2,0.4,0.6,0.8,0.9,1.2c0.2,0.4,0.4,0.8,0.7,1.2
	c1.3,1.9,2.5,3.8,3.8,5.6c0.2,0.3,0.5,0.7,0.9,0.1c0.1-0.1,0.6,0.1,0.9,0.1c-0.2,0.2-0.4,0.4-0.6,0.5c-0.1,0.1-0.2,0.1-0.3,0.1
	c0.1,0.1,0.2,0.3,0.3,0.4c0.2,0.1,0.4,0,0.6,0.1c1.2,0.1,1.5,0.6,1.1,1.7c-0.1,0.4,0.2,1,0.3,1.4c0.2-0.3,0.4-0.6,0.7-0.8
	c0.3-0.3,0.7-0.7,0.8-0.7c0.5,0.3,0.9,0.8,1.2,1.3c0.1,0.1-0.3,0.7-0.6,0.8c-0.8,0.2-0.6,0.5-0.2,0.9c0.9,1,1.9,1.9,2.9,2.8
	c0.5,0.4,1,0.8,1.4,1.3c1.3,1.7,2.9,2.9,5,3.5c0.8,0.2,1.3,1.1,2.1,1.6c0.8,0.6,1.5,1.4,2.7,0.7c0.1-0.1,0.6,0.2,0.7,0.4
	c0.7,1.4,2,1.9,3.4,2.2c0.4,0.1,0.8,0.1,1,0.3c0.8,1,1.7,1.1,2.8,0.5c0.4-0.2,1.2,0.4,1.7,0.8c0.5,0.4,0.9,0.9,1.8,0.5
	c0.4-0.2,1.2,0.2,1.8,0.5c1.1,0.5,2.2,1.2,3.3,1.5c2.9,0.7,5.8,1.2,8.8,1.6c2,0.3,3.9,0.5,5.9,0.8c2,0.3,4.1,0.7,6.1,1
	c0.6,0.1,1.2-0.3,1.8-0.4c0.4-0.1,0.7-0.3,1-0.3c0.1,0,0.3,0.2,0.5,0.2c-0.1,0.2-0.2,0.4-0.3,0.5c-0.2,0.2-0.5,0.4-0.7,0.6
	c0.3,0.1,0.6,0.2,0.9,0.2c0.5,0,1-0.1,1.4,0c0.3,0.1,0.5,0.4,0.8,0.6c-0.3,0.1-0.6,0.3-0.9,0.4c-0.4,0.1-0.9-0.1-1.3,0
	c-0.3,0.1-0.4,0.4-0.7,0.7c0.2,0.1,0.4,0.2,0.6,0.3c0.3,0.1,0.6,0.3,0.9,0.4c-0.3,0.2-0.5,0.4-0.8,0.5c-0.4,0.2-0.9,0.2-1.3,0.4
	c-1,0.4-2.1,0.4-2.7,1.8c-0.5,1.1-1.9,1.8-3,2.5c-4.1,2.5-8.1,5-12.3,7.3c-3.4,2-6.6,4.5-10.7,5.2c-2.4,0.5-4.8,1.2-7.3,1.7
	c-2.6,0.6-5.1,1.1-7.7,1.6c-1.7,0.3-3.4,0.4-5.1,0.6c-1,0.1-2,0.4-3.1,0.5c-2,0-4-0.1-6-0.1c-0.8,0-1.5-0.1-2.3-0.1
	c-3.9-0.1-7.6-0.9-11.3-2.2c-2.1-0.7-4.3-1-6.5-1.5c-0.6-0.2-1.2-0.5-1.8-0.8c-2.4-1.4-4.8-2.7-7.2-4.2c-1.7-1.2-3.3-2.6-4.9-3.9
	c-0.6-0.5-1.3-0.9-1.9-1.4c-3.1-2.9-6.3-5.8-9.3-8.8c-1.9-1.9-3.6-3.9-5.2-6c-1.4-1.8-2.5-3.8-3.6-5.7c-2.7-4.6-5.4-9.1-7.9-13.7
	c-1.6-3-3-6.1-4.3-9.2c-1.7-4.3-3.3-8.8-4.8-13.2c-0.9-2.6-1.3-5.3-2.2-7.9c-1.4-4.2-1.6-8.4-1.5-12.7c0.1-4.7,0.1-9.4,0.3-14.1
	c0.1-2.8,0.4-5.6,0.8-8.4c0.7-4.9,1.5-9.8,2.4-14.6c0.6-3.3,1.1-6.6,2.1-9.7c1.5-4.6,3.4-9.2,5.2-13.7c1.3-3.1,2.6-6.3,4.3-9.2
	c2.2-4.1,4.4-8.2,7.5-11.7c2.6-3.1,5.1-6.2,7.9-9.1c3.3-3.4,6.9-6.4,10.8-9.2c4.1-2.9,8.5-5.3,13-7.6c3.6-1.9,7.5-3.4,11.4-4.3
	c2.4-0.6,4.9-0.7,7.3-1.1c3-0.5,6.1-1.2,9.1-1.7c1.3-0.2,2.6-0.5,3.9-0.6c1.7-0.2,3.5-0.3,5.3-0.3c4,0.2,7.9,0.4,11.8,0.8
	c2.6,0.3,5.1,1.1,7.7,1.5c1.4,0.2,2.6,0.5,3.8,1.3c1.1,0.8,1.2,1.6-0.1,2.4c-1.3,0.7-2.6,1.2-3.9,2c-2.2,1.3-4.4,2.7-6.6,4
	C102.7,62.7,101.4,63.3,100,63.9c0.7-0.9,0-1.2-0.5-1.5c-0.1-0.1-0.3,0.2-0.5,0.3C99.4,63.1,99.7,63.5,100,63.9 M17.3,207.3
	c-0.1-0.2-0.1-0.4-0.2-0.7c-0.2,0.1-0.3,0.2-0.5,0.3c0.2,0.2,0.5,0.3,0.7,0.6c-0.2,1.2,0.3,2.1,1.2,2.7c0.1,0.1,0.3,0.2,0.4,0.1
	c0.1-0.1,0.3-0.3,0.3-0.4C18.4,209.3,18.6,207.8,17.3,207.3 M18.7,203.3c0.5,0.9,0.9,1.8,1.4,2.7c1.5,2.5,2.9,5.1,4.5,7.6
	c1,1.6,2.1,3.2,3.2,4.8c0.4,0.6,0.7,1.4,1.2,2c1.2,1.3,2.5,2.5,3.5,4c0.6,0.9,1.5,1.7,2.3,2.6c1.1,1.4,2.1,2.9,3.4,4.1
	c1.9,1.9,3.9,3.8,6.2,5.3c2.6,1.8,5.4,3.2,8.2,4.6c2,1.1,4.2,2,6.3,2.8c0.9,0.4,2,0.4,3,0.6c0.9,0.1,1.9,0.2,2.8,0.3
	c0.1,0,0.2,0.2,0.4,0.2c-0.2,0.1-0.3,0.3-0.4,0.3c-1.1-0.2-1.9,0.3-2.7,0.9c-0.2,0.2-0.4,0.3-0.6,0.5c0.2,0.1,0.5,0.2,0.7,0.2
	c0.7-0.1,1.4-0.5,1.9-0.3c1,0.3,1.9,0.8,2.9,1.2c0.3,0.1,0.7,0.2,1,0.3c-0.1-0.4-0.1-0.8-0.3-1.2c-0.1-0.3-0.5-0.6-0.4-0.8
	c0.2-0.3,0.5-0.7,0.8-0.8c0.5-0.1,1.1-0.1,1.7,0c0.2,0,0.3,0.2,0.5,0.3c-0.2,0.1-0.3,0.3-0.5,0.4c-0.3,0.2-1,0.6-1,0.6
	c0.3,0.7,0.6,1.4,1.1,1.9c0.2,0.2,0.9-0.1,1.4-0.2c0.2-0.1,0.4-0.3,0.5-0.4c0.2,0.3,0.5,0.6,0.6,0.9c0,0.3-0.4,0.6-0.5,1
	c-0.1,0.5-0.3,1.2-0.2,1.4c0.7,0.5,0.6-0.4,0.8-0.7c0.1-0.2,0.4-0.3,0.4-0.5c0.4-0.9,1.1-1.6,0.8-2.8c-0.2-0.7,1-1.9,1.3-1.5
	c1,1.3,2.3,1.3,3.7,1.2c0.2,0,0.5,0,0.7,0.1c0.1,0,0.2,0.2,0.3,0.3c-0.1,0.1-0.2,0.2-0.2,0.2c-1.1,0-2.3-0.1-3.4-0.1
	c-0.3,0-0.7-0.1-0.9,0.1c-0.2,0.2-0.3,0.6-0.4,1c0.3,0.1,0.6,0.3,0.9,0.3c1.2,0,2.4,0,3.5,0c0.9,0,1.6,0,1.8-1.1
	c0.2-0.7,0.7-0.8,1-0.1c0.4,1,1.2,0.9,2,0.8c0.8-0.2,1.3-0.6,1.2-1.6c0-0.3,0.4-0.7,0.6-1c0.1,0.4,0.2,0.8,0.4,1.1
	c0.1,0.2,0.2,0.7,0.2,0.7c1.8-0.3,3.6-0.6,5.4-1c0.1,0,0.2-0.2,0.3-0.3c0.6-0.3,1.1-1.7,1.8-0.1c0,0.1,0.3,0.1,0.5,0.1
	c1.7-0.4,3.3-0.8,5-1.3c0.7-0.2,1.4-0.4,2-0.8c0.7-0.4,1.6-0.9,2-1.6c0.4-0.9,0.5-1.4,1.1-0.2c0.1,0.1,0.4,0.2,0.5,0.2
	c2.1-0.9,4.3-1.6,6.3-2.7c1.6-0.8,3.1-2,5-2.2c0.2,0,0.5-0.5,0.5-0.7c0-0.2-0.4-0.5-0.6-0.6c-1-0.1-1.9-0.1-2.9-0.3
	c-2.5-0.4-5.1-0.4-7.6-1.3c-2.7-0.9-5.6-1.2-8.2-2.4c-5.1-2.2-10.2-4.3-14.7-7.8c-3.1-2.4-6-4.9-9-7.4c-3.1-2.6-5.3-5.9-7.7-9.1
	c-0.7-0.9-1.3-1.9-1.8-2.9c-0.2-0.5,0-1.2-0.2-1.6c-1.5-2.7-3.1-5.2-4.5-8c-1.5-3.1-2.7-6.3-4-9.5c-0.2-0.5-0.7-0.9-0.9-1.5
	c-0.3-0.7-0.7-1.5-0.9-2.3c-0.2-0.9,0.1-2.1-0.4-2.7c-1.1-1.5-1.1-3.1-1.2-4.7c-0.1-1.1-0.1-2.3-0.3-3.4c-0.5-2.9-1.2-5.8-1.5-8.8
	c-0.4-3.2-0.5-6.4-0.5-9.6c-0.1-3.9,0-7.8,0-11.7c0-1.5,0.1-3,0.3-4.5c0.4-3.3,1.1-6.5,1.2-9.8c0.1-2.5,0.5-4.9,1.4-7.2
	c1.8-4.8,3.5-9.7,5.5-14.5c1.2-2.7,3-5.1,4.2-7.8c1.7-3.7,3.5-7.4,5.9-10.8c0.5-0.7,0.7-1.5,1.1-2.3c0.2-0.3,0.4-0.7,0.7-0.8
	c2.1-1,3.2-3,4.7-4.6c0.9-0.9,1.3-2.2,2.2-3.1c1.4-1.6,2.9-3,4.4-4.4c0.7-0.7,1.3-1.4,1.4-2.5c0-0.3,0.6-0.5,0.9-0.8
	c0.1,0,0.2,0,0.3,0c-0.1-0.1-0.2-0.2-0.2-0.4c-0.1-0.2-0.2-0.5-0.3-0.7c0.2,0,0.4,0,0.5,0.1c0.9,0.4,1.6,0,1.8-1
	c0.1-0.4-0.1-0.9,0-1.3c0.2-0.6,0.5-1.2,0.8-1.8c0.1,0.5,0.1,1,0.2,1.6c0.1,0.4,0.2,0.9,0.4,1.3c0.5-0.2,1.4-0.2,1.5-0.5
	c0.3-0.6,0.1-1.3,0.1-2c0-0.4,0-0.9-0.1-1.3c0.3,0.1,0.7,0.2,1,0.4c1.1,0.9,1.5,0.8,2.6-0.3c0.1-0.1,0.3-0.1,0.5-0.1
	c1.1,0.1,2-0.4,2.8-1.1c0.3-0.2,0.9-0.1,1.3-0.2c0.2,0,0.5,0.1,0.6,0c1.5-0.6,3-1.3,4-2.7c0.1-0.2,0.1-0.4,0.2-0.6
	c-0.2,0.1-0.4,0.1-0.6,0.2c-0.5,0.2-0.9,0.6-1.4,0.6c-1.4,0.1-2.7,0-4.1,0c-2.5,0-4.9,0-7.4,0c-0.2,0-0.4-0.1-0.7-0.2
	c0.2-0.1,0.4-0.2,0.5-0.3c0.3-0.3,0.5-0.6,0.8-0.9c-0.2-0.1-0.5-0.4-0.6-0.4c-0.3,0.1-0.7,0.3-0.9,0.6c-0.1,0.1-0.2,0.3-0.1,0.5
	c0.1,0.9-0.4,1.1-1.2,1c-0.5,0-1-0.1-1.4,0c-2.4,0.7-4.8,0.8-7.2,1.1c-3,0.4-5.9,1.3-8.8,2.1c-2.7,0.7-5.2,1.8-8,2.1
	c-0.7,0.1-0.9,0.2-1.1-0.6c0-0.2-0.6-0.3-0.9-0.5c0,0.2,0,0.5,0.1,0.7c0.3,0.6,0.3,0.9-0.4,1.2c-1.7,0.7-3.4,1.5-5.1,2.3
	c-3.4,1.5-6.7,3.1-9.4,5.7c-0.5,0.5-1.1,0.9-1.7,1.4c-1.9,1.5-3.9,2.8-5.6,4.4c-2,2-3.8,4.2-5.7,6.4c-0.5,0.5-0.9,1.1-1.4,1.6
	c-1.4,1.6-2.9,3-4.2,4.7c-1.1,1.4-1.9,3-2.8,4.5c-1.3,2.2-2.9,4.2-4,6.5c-1.6,3.4-2.8,7-4.2,10.5c-0.2,0.6-0.6,1.1-0.8,1.6
	c-0.4,1.4-0.7,2.9-1.1,4.3c-0.4,1.4-1.1,2.8-1.5,4.2c-0.7,2.6-1.4,5.2-1.8,7.9c-0.4,2.4-0.6,4.8-0.8,7.1c-0.1,0.6,0.3,1.2,0.2,1.7
	c-0.3,1.6-0.6,3.2,0.3,4.7C9,145,9,145.4,9,145.6c-0.3-0.2-0.6-0.3-0.9-0.5c-0.2-0.1-0.4-0.3-0.5-0.4c-0.1,0.3-0.2,0.5-0.2,0.8
	c0,0.3,0.4,0.6,0.3,0.9c-0.1,1.2,1,2.3,0,3.6c-0.3,0.3,0,1.4,0.4,1.9c0.5,0.7,0.7,2,0,2.3c-0.8,0.4-1.2,0.8-0.7,1.7
	c0.2,0.3,0.1,0.8,0,1.2c-0.2,2-0.5,3.9-0.5,5.9c0.1,2.7,0.3,5.5,0.8,8.2c0.8,4.2,1.8,8.3,2.9,12.4c0.4,1.6,1,3.3,1.6,4.8
	c0.6,1.6,1.2,3.2,1.9,4.8c0.4,0.9,0.8,1.7,1.2,2.6c0.5,1.1,0.8,2.2,1.3,3.3C17.1,200.5,17.9,201.8,18.7,203.3 M124.1,233.8
	c0.2-0.4,0.5-0.8,0.7-1.3c0.1-0.3,0.1-0.6,0-0.9c0-0.1-0.5-0.2-0.6-0.1c-0.2,0.2-0.4,0.5-0.4,0.7c-0.1,0.7,0.2,1.7-1.2,1.1
	c-0.1,0-0.4,0.1-0.4,0.2c-0.3,1.4-1.5,1.4-2.5,1.7c-0.3,0.1-0.8,0.5-0.8,0.8c-0.2,0.7-0.1,1.5-0.3,2.1c-0.5,1.2,0.7,1.7,0.8,2.6
	c0.1,0,0.3,0,0.4,0c0.3-0.5,0.7-1,0.7-1.5c0-0.6-0.3-1.2-0.4-1.8c-0.1-0.4,0-0.8,0-1.1c0.4,0,0.7,0.1,1.1,0.1c0.5,0,1,0,1.5-0.1
	c0.1,0,0-0.6,0-0.9c0-0.2,0.2-0.4,0.4-0.5C123.3,234.7,123.7,234.4,124.1,233.8 M22.1,90.4c-0.3,0.8-0.6,1.6-0.9,2.4
	c0,0.1,0.1,0.3,0.3,0.4c0.1,0,0.3-0.1,0.4-0.1c0.6-0.9,1.2-1.9,1.7-2.8c0.4-0.6,0.6-1.3,1-1.9c0.5-0.7,1.1-1.2,1.6-1.9
	c0.1-0.1,0-0.3-0.1-0.5c-0.1,0-0.3,0-0.4,0.1C24.3,87.3,22.7,88.3,22.1,90.4 M95.9,54.9c1.1,0.5,2.3,1,3.4,1.4c0,0,0.2-0.1,0.2-0.2
	c0-0.1-0.1-0.2-0.1-0.3c-0.2-0.4-0.7-1-0.6-1.3c0.5-1.1-0.5-1.1-1-1.3C96.5,52.8,95.5,53.6,95.9,54.9 M74.9,85.5
	c0.1,0.4,0.3,1,0.7,0.3c0.5-0.9,0.5-1.9,1.6-2.3c0.4-0.1,0.7-0.7,1.1-1c0.2-0.2,0.5-0.4,0.8-0.7c-0.1-0.1-0.2-0.3-0.3-0.3
	c-0.3,0.1-0.6,0.2-0.8,0.3c-1,0.5-1.8,1.7-3.2,0.9c-0.1,0-0.2,0-0.3,0c0.1,0.2,0.1,0.4,0.2,0.5C75.4,83.9,75.2,84.6,74.9,85.5
	 M39.9,72.3c0.3,0.2,0.5,0.4,0.8,0.5c0.1,0.1,0.3,0,0.5,0c0-0.1,0-0.3,0-0.4c-0.6-1.1-0.1-1.3,0.9-1.3c1.1,0,1.8-0.8,1.7-1.7
	c0-0.2-0.3-0.4-0.5-0.7c-0.2,0.2-0.5,0.3-0.5,0.5c0,1.1-1,1.3-1.6,1.3C39.8,70.7,39.7,71.3,39.9,72.3 M34.8,76.9c1-1.1,2.1-2,3.7-2
	c0.1,0,0.3-0.2,0.5-0.4c-0.2-0.1-0.3-0.3-0.5-0.4c-1.8-0.3-3.1,0.8-4.2,2c-0.2,0.2-0.3,0.4-0.4,0.6C34.2,76.9,34.4,76.9,34.8,76.9
	 M17.7,97.5c-0.3,0.6-0.6,1.1-0.9,1.7c-0.1,0.3-0.2,0.7-0.2,1.1c0.4-0.1,0.8-0.2,1.1-0.5c0.2-0.2,0.2-0.7,0.4-1
	c0.2-0.3,0.4-0.6,0.7-0.8c0.3-0.2,0.7-0.4,1-0.6c0.1-0.1,0.2-0.3,0.2-0.4c0-0.1-0.3-0.3-0.4-0.2C19,96.9,18.4,97.1,17.7,97.5
	 M55.5,121.2c0.2,0.2,0.3,0.3,0.5,0.5c0.2,0.1,0.4,0.2,0.6,0.3c0-0.2,0.1-0.5-0.1-0.7c-0.8-1-0.2-1.7,0.5-2.4
	c0.1-0.1,0.3-0.5,0.2-0.6c-0.2-0.3-0.5-0.4-0.8-0.6c-0.2,0.2-0.3,0.5-0.4,0.7c-0.2,0.4-0.4,0.8-0.7,1.1
	C54.7,120.1,55,120.5,55.5,121.2 M107.8,247.3c-0.2-0.9-0.4-1.9-0.6-2.8c0-0.3,0.2-0.5,0.3-0.8c-0.3,0.1-0.7,0.1-0.9,0.3
	c-0.2,0.2-0.4,0.6-0.4,0.8c0.2,1,0.5,2,0.9,3c0.2,0.4,0.6,0.8,0.9,1.1c-0.1-0.4-0.1-0.8-0.2-1.2
	C107.9,247.6,107.9,247.5,107.8,247.3 M126.9,235.7c0.1,0.1,0.2,0.3,0.4,0.4c0.4,0.1,0.9,0.2,1.3,0.3c-0.2-0.4-0.4-0.7-0.5-1.1
	c-0.3-0.7-0.5-1.5-0.8-2.3c-0.1-0.2,0-0.4-0.1-0.7c-0.2,0.2-0.4,0.4-0.4,0.6C126.7,233.9,126.8,234.7,126.9,235.7 M53.7,138.7
	c0.4,1.1,0.4,1.1-0.7,1.2c-0.2,0-0.4,0.3-0.7,0.5c0.2,0.2,0.4,0.4,0.6,0.5c0.5,0.2,1.1,0.4,1.6,0.5c0.1,0,0.4-0.3,0.4-0.4
	c-0.1-0.8-0.3-1.6-0.5-2.4C54.3,138.1,54.1,137.9,53.7,138.7 M67.8,97.9c-0.2-0.1-0.5-0.3-0.5-0.2c-0.7,0.7-1.3,1.4-1.9,2.2
	c-0.5,0.7-0.7,1.3,0.4,1.7c0.3,0.1,0.5,0.2,0.7,0.3c-0.1-0.2-0.2-0.5-0.3-0.7c-0.1-0.3-0.3-0.7-0.1-0.9
	C66.6,99.5,67.2,98.8,67.8,97.9 M76.6,215.3c0.3,0,0.6-0.1,0.9-0.1c-0.2-0.3-0.3-0.6-0.5-0.8c-0.5-0.5-0.9-1.1-1.5-1.4
	c-0.3-0.2-0.8-0.1-1.2-0.1c0.1,0.3,0.1,0.7,0.3,0.9C75.2,214.3,75.8,214.7,76.6,215.3 M92.8,56.6c0,0.7-0.1,1.4,0.8,1.5
	c0.1,0,0.2-0.9,0.3-1.3c0-0.1,0-0.2,0-0.3c-0.1-0.6-0.2-1.1-0.3-1.7C93.5,55.4,93.2,55.9,92.8,56.6 M55,127.2
	c-0.7-0.1-1.4-0.2-2.1-0.3c-0.1,0-0.3,0.4-0.3,0.5c0.2,0.4,0.6,1.2,0.8,1.1c0.6-0.1,1.2-0.6,1.7-0.9C55.3,127.6,55.2,127.4,55,127.2
	 M60.8,112c0.7-0.9-0.7-1-0.6-1.6c0-0.1-0.4-0.2-0.6-0.3c0.1,0.2,0,0.5,0.2,0.6c0.7,0.6,0.7,1.2,0.1,1.8c-0.2,0.2-0.4,0.6-0.5,1
	c0,0.2,0.1,0.4,0.1,0.6c0.2-0.1,0.5-0.1,0.5-0.3C60.2,113.3,60.4,112.7,60.8,112 M72,211.3c0.2,0.1,0.3,0.3,0.5,0.4
	c0.9,0.2,1.7-0.1,2.4-0.7c0.2-0.2,0.5-0.3,0.7-0.4c-0.3,0-0.7-0.1-0.9,0.1c-0.9,0.7-1.5,0.4-2.2-0.4c-0.1-0.1-0.3-0.1-0.5-0.1
	C72,210.5,72,210.7,72,211.3 M14.9,204.5c0.2,0.2,0.3,0.4,0.6,0.5c0.3,0.1,0.7,0.1,1.1,0.2c-0.1-0.3-0.2-0.6-0.4-0.8
	c-0.2-0.2-0.4-0.4-0.6-0.6c-0.3-0.3-0.6-0.5-1-0.7C14.6,203.4,14.7,203.9,14.9,204.5 M10,192.4c0.3-0.7,0.5-1.4,0.8-2.2
	c0-0.1-0.2-0.4-0.3-0.5c-0.1-0.1-0.4,0-0.5,0.1C8.9,190.5,8.9,191.2,10,192.4 M79.5,78.6c0.3-0.2,0.6-0.4,0.9-0.6
	c-0.4,0-0.7,0-1.1,0c-0.4,0-0.9-0.1-1.3,0.1c-0.3,0.2-0.5,0.7-0.8,1c0,0,0.3,0.3,0.3,0.2C78.2,79.1,78.7,78.9,79.5,78.6 M103.3,54.5
	c-0.3-0.1-0.5-0.2-0.8-0.3c0.1,0.4,0,0.9,0.2,1.2c0.3,0.5,1.1,1.3,1.1,1.2c0.8-0.5,0.1-1-0.2-1.5C103.6,55,103.5,54.8,103.3,54.5
	 M52.3,148.8c0.1,0,0.2,0.1,0.4,0.1c0.3,0,0.7,0.2,1,0.1c0.2-0.1,0.4-0.4,0.6-0.6c-0.3-0.1-0.7-0.3-1-0.4c-0.2-0.1-0.4-0.2-0.6-0.2
	c-0.3,0-0.6,0-1,0C51.8,148.1,52,148.4,52.3,148.8 M124.8,235.7c0,0.6,0.1,1.3,0.1,1.9c0,0.2,0.2,0.3,0.2,0.5
	c0.1-0.1,0.3-0.1,0.4-0.3c0.7-0.9,0.3-1.7-0.4-2.5c-0.1-0.1-0.3-0.2-0.4-0.4C124.7,235.2,124.7,235.4,124.8,235.7 M104.4,230.8
	c0.4,0.2,0.9,0.3,1.3,0.5c0.2-0.9,0.9-0.8,1.5-0.8c0.1,0,0.3-0.3,0.4-0.4c-0.1-0.1-0.3-0.4-0.4-0.3
	C106.2,230,105.2,230.3,104.4,230.8 M54.5,168c-1.3-0.1-1.1,1.1-1.5,1.8c0,0,0.3,0.4,0.5,0.5c0.1,0.1,0.2,0.1,0.3,0
	C53.9,169.7,54.2,169,54.5,168 M56.2,114c0.1,0.1,0.2,0.3,0.4,0.4c0.5-0.5,1.1-1,1.5-1.6c0.1-0.2,0-0.5,0-0.8
	c-0.3,0.1-0.6,0.1-0.8,0.3C57,112.8,56.7,113.3,56.2,114 M80,56.6c-0.4-0.3-0.7-0.6-1.1-0.8c-0.1-0.1-0.4,0.1-0.6,0.2
	c-0.2,0.1-0.4,0.4-0.4,0.5C77.9,56.9,79.7,57.1,80,56.6 M69.3,252c-0.1,0.1-0.3,0.2-0.4,0.3c0.6,0.5,1.3,1,1.9,1.5
	c0.1,0.1,0.2,0,0.3,0c0-0.1,0.1-0.4,0-0.4C70.6,252.9,70.1,252.4,69.3,252 M19.6,208.4c0.2,0.5,0.3,1,0.5,1.5
	c0.1,0.3,0.2,0.5,0.4,0.7c0.1-0.3,0.5-0.6,0.4-0.8c-0.3-0.7-0.8-1.4-1.2-2.1c0-0.1-0.3,0-0.4,0C19.4,207.9,19.4,208.1,19.6,208.4
	 M61.7,189.7c-0.1-0.3-0.1-0.7-0.2-1c-0.2,0.3-0.3,0.5-0.5,0.8c-0.1,0.2-0.3,0.4-0.2,0.5c0,0.4,0.1,0.7,0.3,1c0,0.1,0.2,0.1,0.3,0.1
	c0.1-0.3,0.1-0.6,0.2-0.9C61.6,190.1,61.5,190,61.7,189.7 M93.4,64.5c0.5-0.1,1.1-0.1,1.6-0.3c0.2,0,0.3-0.3,0.4-0.5
	c0-0.1-0.2-0.3-0.3-0.3c-0.4,0-0.9-0.1-1.3,0C93.2,63.5,92.6,63.6,93.4,64.5 M73.9,252.9c-0.3-0.2-0.7-0.4-1-0.6
	c0.3,0.5,0.5,1,0.9,1.4c0.2,0.2,0.6,0.1,0.9,0.2C74.4,253.6,74.2,253.3,73.9,252.9 M5.8,138.2c0-1.1-1-0.9-1.7-1.2
	c-0.1,0-0.3,0.1-0.4,0.1c0.4,0.3,0.8,0.7,1.3,1C5.1,138.3,5.4,138.3,5.8,138.2 M95.1,249.2c0.4,0.2-0.1,1.7,1,0.7
	c0.2-0.2,0.1-0.8,0.1-1.2C95.9,248.9,95.5,249,95.1,249.2 M13.5,198c0.2,0,0.6-0.1,0.6-0.1c-0.1-0.5-0.1-1.1-0.3-1.6
	c-0.1-0.2-0.5-0.4-0.7-0.5c-0.1,0.3-0.2,0.6-0.2,0.9C13,197.1,13.2,197.5,13.5,198 M77.9,252.8c0.5-0.3,1-0.5,1.4-0.8
	c0,0-0.1-0.3-0.2-0.5c-0.4,0.2-0.8,0.5-1.2,0.7C77.9,252.3,77.8,252.5,77.9,252.8 M102.8,59.7c-0.5,0.4-1,0.8-1.4,1.2
	c-0.1,0.1-0.1,0.4,0,0.4c0.1,0.1,0.5,0.2,0.5,0.1C102.2,61,102.6,60.4,102.8,59.7 M56.6,172.2c-0.5-0.3-1-0.6-1.6-0.9
	c-0.1-0.1-0.3,0-0.5,0.1c0,0.1,0,0.4,0.1,0.4C55.2,172.1,55.7,173,56.6,172.2 M4.5,146.6c-0.1,0.5-0.2,1-0.2,1.6
	c0,0,0.4,0.1,0.6,0.2C4.9,147.7,5.8,146.9,4.5,146.6 M4.2,144.5c0.1,0.2,0.1,0.4,0.2,0.7c0.1-0.1,0.2-0.3,0.3-0.4
	c0.2-0.2,0.4-0.4,0.6-0.6c0.2-0.2,0.2-0.5,0.4-0.7c-0.3,0-0.7-0.2-0.9,0C4.6,143.5,4.4,143.9,4.2,144.5 M53.6,163.7
	c0.3-0.2,0.6-0.4,0.9-0.6c-0.3-0.1-0.6-0.1-1-0.2c-0.1,0-0.3-0.1-0.4,0c-0.3,0.2-0.5,0.4-0.7,0.7C52.7,163.6,53,163.7,53.6,163.7
	 M76,251.6c-0.4,0-0.9,0-1.3,0c0.3,0.4,0.6,0.8,0.9,1.1c0.1,0.1,0.2,0.1,0.4,0.2C76,252.5,76,252.1,76,251.6 M11,114.9
	c-0.4,0-0.7-0.2-1.1-0.1c-0.3,0-0.5,0.3-0.7,0.5c-0.1,0.1,0,0.3,0.1,0.5c0.3-0.1,0.5-0.1,0.8-0.2C10.4,115.5,10.7,115.3,11,114.9
	 M59.2,116.5c-0.5-1-0.9,0-1.4,0.1c-0.2,0-0.3,0.4-0.4,0.7c0.4-0.1,0.8-0.1,1.2-0.2C58.8,117,58.9,116.7,59.2,116.5 M12.6,110.2
	c0.1-0.5,0.1-0.9,0.2-1.4c-0.1,0-0.3,0-0.3,0c-0.2,0.5-0.4,0.9-0.6,1.4c0,0,0,0.1,0,0.1C12,110.3,12.2,110.3,12.6,110.2 M6.5,149.5
	c-0.8-0.5-0.8,0.3-1,0.7c-0.1,0.2,0.1,0.5,0.2,0.8c0.3-0.3,0.6-0.6,0.9-0.9C6.6,149.9,6.5,149.8,6.5,149.5 M61.9,194.6
	c0,0.2-0.1,0.4-0.1,0.6c0.4-0.1,0.9-0.2,1.3-0.3c0.1,0,0.1-0.2,0.2-0.4C62.9,194.6,62.6,194.6,61.9,194.6 M114.3,233.4
	c0.4,0.2,0.9,0.4,1.3,0.5c0.1,0,0.2-0.3,0.4-0.5c-0.4-0.1-0.7-0.2-1.1-0.3C114.8,233.1,114.6,233.2,114.3,233.4 M53.4,124.3
	c0.3-0.2,0.7-0.4,0.7-0.7c0-0.2-0.4-0.5-0.6-0.7C53.5,123.3,53.4,123.7,53.4,124.3 M67.3,58c-0.1-0.2-0.1-0.4-0.2-0.7
	c-0.1,0.2-0.3,0.4-0.3,0.5c0.2,0.5,0.4,1,0.6,1.5c0,0,0.2,0,0.3,0C67.7,59,67.6,58.6,67.3,58 M78.3,212c-0.4,0.3-0.9,0.6-1.3,0.9
	c0,0,0.2,0.3,0.3,0.5c0.3-0.3,0.6-0.5,0.9-0.8C78.3,212.6,78.3,212.4,78.3,212 M91.3,68.9c-0.3,0.9,0.4,0.8,0.9,0.8
	c0.3,0,0.5-0.2,0.7-0.3c-0.4-0.1-0.8-0.3-1.1-0.4C91.7,68.9,91.6,68.9,91.3,68.9 M68,60.5c0.2,0.4,0.7,0.5,1.1,0.1
	c0.2-0.2,0.4-0.5,0.6-0.8c-0.3,0.1-0.6,0.1-1,0.2C68.5,60.1,68.3,60.3,68,60.5 M5.2,140.3c-0.3,0-0.9-0.2-0.9-0.1
	c-0.2,0.3-0.2,0.8-0.3,1.2c0.2-0.2,0.5-0.4,0.7-0.7C4.9,140.7,5,140.5,5.2,140.3 M98,57.3c-0.2-0.1-0.5-0.2-0.7-0.3
	c-0.1,0.5-0.2,0.9-0.3,1.4c0.1,0,0.4,0.1,0.4,0C97.6,58.1,97.8,57.8,98,57.3 M61.7,60.3c-0.3,0.1-0.6,0.3-0.9,0.4
	c0.2,0.3,0.5,0.5,0.7,0.8C61.6,61.1,61.7,60.8,61.7,60.3 M68,204.3c-0.1,0.5-0.2,1-0.2,1.6c0,0.2,0.2,0.4,0.3,0.5
	c0.1-0.2,0.3-0.3,0.4-0.5C68.3,205.4,68.3,204.9,68,204.3 M91.7,56c0.2-0.4,0.3-0.9,0.5-1.3c-0.2,0-0.5,0-0.6,0.1
	C91,55.2,91,55.6,91.7,56 M116.3,241.9c-0.2,0.3-0.5,0.6-0.7,0.9c0.3,0,0.6,0.1,0.8,0C117,242.4,116.9,242.3,116.3,241.9
	 M56.8,246.6c-0.2-0.2-0.4-0.3-0.5-0.5c0,0.4,0,0.8,0,1.2c0,0.2,0.3,0.3,0.5,0.4C56.8,247.4,56.9,247.1,56.8,246.6 M60.2,105.5
	c-0.1-0.1-0.1-0.2-0.2-0.3c-0.1,0.2-0.3,0.5-0.4,0.7c-0.1,0.3-0.1,0.6-0.2,0.9c0,0,0.3,0.1,0.3,0.1c0.2-0.3,0.3-0.6,0.5-0.9
	C60.3,105.9,60.2,105.8,60.2,105.5 M79.8,75.5c-0.1,0.2-0.2,0.4-0.2,0.5c0.4,0.1,0.9,0.2,1.3,0.2c0,0,0.1-0.4,0.1-0.4
	C80.6,75.7,80.3,75.6,79.8,75.5 M70.6,55.8c0.2,0.3,0.4,0.5,0.7,0.8c0.1,0.1,0.3,0,0.5-0.1c-0.2-0.4-0.3-0.7-0.5-1.1
	C71.1,55.5,70.9,55.6,70.6,55.8 M105.3,247.9c-0.1-0.5-0.3-1-0.4-1.4c-0.1,0.1-0.4,0.3-0.4,0.3C104.7,247.2,104.9,247.6,105.3,247.9
	 M7.3,126.1c0.1,0,0.2,0.1,0.3,0.1c0.1-0.5,0.3-1,0.4-1.5c0-0.1-0.2-0.2-0.3-0.3C7.6,125,7.4,125.4,7.3,126.1 M13.5,199.3
	c-0.2-0.2-0.4-0.3-0.6-0.5c0,0.4-0.1,0.8-0.1,1.3c0,0.1,0.3,0.2,0.4,0.3C13.4,200.1,13.5,199.8,13.5,199.3 M56.7,186
	c0.2,0.5,0.4,1,0.6,1.6c0.1,0,0.2-0.1,0.3-0.1C57.4,186.9,57.2,186.5,56.7,186 M97.2,64.9c0.2,0,0.3,0.1,0.5,0.1c0-0.4,0-0.8,0-1.2
	c0-0.1-0.1-0.3-0.2-0.4c-0.1,0.1-0.3,0.3-0.3,0.4C97.1,64.1,97.2,64.3,97.2,64.9 M16.2,102.8c-0.1,0.3-0.3,0.6-0.4,1
	c0,0.1,0.2,0.3,0.3,0.4c0.2-0.3,0.5-0.5,0.5-0.8C16.7,103.2,16.5,103,16.2,102.8 M68.9,250.3c0.1-0.3,0.1-0.6,0.2-0.9
	c-0.2,0-0.6,0-0.7,0.1c-0.2,0.2-0.2,0.5-0.3,0.8C68.3,250.3,68.5,250.4,68.9,250.3 M51.6,65.1c-0.3,0.1-0.5,0.3-0.8,0.4
	c0.2,0.3,0.3,0.5,0.5,0.8C51.5,65.9,51.6,65.6,51.6,65.1 M14.5,105.1c0.1-0.4,0.2-0.8,0.3-1.2c-0.3,0.2-0.6,0.4-0.8,0.7
	C14,104.6,14.3,105,14.5,105.1 M84.9,250.3c-0.2-0.1-0.4-0.2-0.5-0.2c0,0.4,0,0.7,0.1,1.1c0,0.1,0.3,0.2,0.4,0.3
	C84.9,251.1,84.9,250.7,84.9,250.3 M93.8,250c-0.3,0-0.7-0.1-1-0.1c-0.1,0-0.2,0.2-0.3,0.4c0.2,0.1,0.5,0.4,0.7,0.4
	C93.4,250.6,93.7,250.3,93.8,250 M88,249.8c0.1,0.3,0.2,0.6,0.3,0.9c0.2-0.4,0.3-0.7,0.5-1.1C88.6,249.6,88.4,249.6,88,249.8
	 M81.7,54.1c0.2,0,0.3,0.2,0.5,0.1c0.3-0.1,0.6-0.2,0.9-0.4c0,0-0.1-0.3-0.1-0.3c-0.3,0-0.6,0-0.9,0.1
	C81.9,53.6,81.8,53.8,81.7,54.1 M6.3,176.2c-0.4,0-0.8-0.1-1.2-0.1c0,0-0.1,0.3-0.1,0.4C5.4,176.4,5.8,176.4,6.3,176.2 M61.7,110
	c0,0.1-0.1,0.2-0.1,0.2c0.1,0.1,0.3,0.2,0.5,0.2c0.1-0.4,0.2-0.9,0.3-1.3c0,0-0.2-0.1-0.3-0.1C61.9,109.3,61.9,109.6,61.7,110
	 M96.1,57c0.1-0.1,0.2-0.2,0.2-0.3c-0.2-0.1-0.4-0.3-0.6-0.4c-0.1,0.5-0.3,0.9-0.4,1.4c0,0,0.2,0.1,0.2,0.2
	C95.7,57.7,95.9,57.4,96.1,57 M29.9,80.8c0.1,0.2,0.1,0.4,0.2,0.7c0.2-0.1,0.5-0.2,0.6-0.4c0-0.2-0.1-0.5-0.2-0.8
	C30.2,80.4,30,80.5,29.9,80.8 M84.2,55.3c0-0.3,0-0.5,0-0.8c-0.2,0.1-0.6,0.2-0.6,0.4c-0.1,0.3,0.1,0.6,0.1,0.9
	C83.8,55.7,84,55.6,84.2,55.3 M18.9,95.2c1,0.1,0.5-1,1-1.3c0-0.1-0.1-0.1-0.1-0.2c-0.3,0.3-0.6,0.5-0.8,0.8
	C18.9,94.7,18.9,94.9,18.9,95.2 M13.2,107.2c-0.1,0.2-0.2,0.4-0.2,0.5c0.2,0,0.5,0.1,0.7,0c0.2,0,0.3-0.3,0.5-0.4
	C13.9,107.3,13.7,107.2,13.2,107.2 M9.4,187.4c0.2-0.3,0.4-0.6,0.5-1c0,0-0.2-0.1-0.3-0.2C9.5,186.6,9.4,186.9,9.4,187.4
	 M11.8,196.6c-0.1-0.1-0.1-0.3-0.2-0.4c0,0.4-0.1,0.8-0.1,1.2c0,0.1,0.2,0.3,0.3,0.4C11.8,197.5,11.8,197.2,11.8,196.6 M55.9,178.1
	c0.1,0.1,0.2,0.2,0.3,0.2c0.1-0.3,0.3-0.7,0.4-1c0-0.1-0.2-0.2-0.3-0.3C56.1,177.4,55.9,177.7,55.9,178.1 M65.6,62.1
	c0.1-0.2,0.2-0.5,0.3-0.7c-0.3,0.1-0.6,0.1-0.9,0.2c-0.1,0.1-0.3,0.2-0.4,0.3C64.9,62,65.1,62,65.6,62.1 M55.4,132.8
	c0.2-0.1,0.5-0.2,0.6-0.4c0.1-0.1-0.2-0.4-0.3-0.6C55.6,132.1,55.4,132.4,55.4,132.8 M24.9,217.3c0.2,0.3,0.4,0.6,0.6,0.9
	c0,0,0.3-0.1,0.4-0.1c-0.3-0.3-0.6-0.5-0.8-0.8C25.1,217.2,25,217.2,24.9,217.3 M73.2,57.1c-0.2,0-0.4,0.1-0.6,0.1
	c0.3,0.1,0.6,0.4,0.9,0.4c0.2,0,0.4-0.2,0.6-0.3C73.9,57.3,73.7,57.2,73.2,57.1 M3.8,155.6c0-0.4,0-0.9,0-1.3c0,0-0.2,0-0.2,0
	C3.5,154.7,3.5,155.2,3.8,155.6 M46.4,67.5c0.2,0.2,0.3,0.4,0.5,0.7c0.1-0.2,0.2-0.4,0.3-0.5C46.9,67.5,46.7,67.4,46.4,67.5
	 M111.6,243.2c-0.3-0.2-0.6-0.4-0.9-0.7c-0.1,0.1-0.1,0.2-0.2,0.3C110.8,243,111.1,243.2,111.6,243.2 M79.5,253.3
	c0,0.3,0.1,0.5,0.1,0.8c0.2-0.1,0.5-0.2,0.7-0.3C80.2,253.6,80,253.4,79.5,253.3 M53.2,157.8c0,0.3,0,0.6,0,0.9
	c0,0.1,0.1,0.3,0.2,0.3c0.1,0,0.3-0.1,0.3-0.1C53.5,158.5,53.4,158.1,53.2,157.8 M64.2,197.6c-0.1-0.3-0.1-0.7-0.2-1
	c0-0.1-0.2-0.1-0.3-0.1c0,0.3-0.1,0.6,0,0.9C63.7,197.5,63.9,197.7,64.2,197.6 M57.9,121.4c0.2,0.2,0.4,0.3,0.6,0.5
	c0-0.3-0.1-0.5-0.1-0.8C58.2,121.1,58,121.1,57.9,121.4 M66.8,251.1c-0.3,0-0.6-0.1-0.9-0.1c0,0-0.1,0.3-0.1,0.4
	C66.1,251.3,66.4,251.3,66.8,251.1 M52.6,245.8c0.3-0.1,0.5-0.2,0.8-0.3c-0.2-0.1-0.4-0.2-0.6-0.4C52.7,245.4,52.6,245.5,52.6,245.8
	 M69.3,202c0.3,0.2,0.5,0.3,0.8,0.5c-0.1-0.3-0.2-0.6-0.3-0.8C69.7,201.6,69.3,201.8,69.3,202 M8.3,132.3c-0.3-0.1-0.6-0.1-0.9-0.2
	c0,0.1,0.1,0.4,0.1,0.4C7.8,132.5,8.1,132.5,8.3,132.3 M6,169.9c-0.1-0.1-0.3-0.2-0.4-0.3c0,0.3,0,0.6,0,1
	C5.7,170.4,5.9,170.3,6,169.9 M60.6,249.4c-0.1-0.3-0.2-0.5-0.3-0.8c-0.1,0.1-0.3,0.1-0.4,0.2C60.1,249,60.2,249.2,60.6,249.4
	 M101.6,246.9c-0.2-0.1-0.4-0.2-0.6-0.2c0,0.2,0,0.5,0,0.7C101.3,247.3,101.4,247.2,101.6,246.9 M68.6,58c0.2,0.1,0.4,0.3,0.6,0.4
	c0.1-0.1,0.1-0.3,0.2-0.4C69.1,58,68.9,57.9,68.6,58 M14.1,202.6c0-0.3,0-0.5,0-0.8c-0.1,0-0.3,0.1-0.3,0.1
	C13.8,202.2,13.9,202.5,14.1,202.6 M109.5,243.7c0.1,0.3,0.1,0.6,0.2,0.9c0.1,0,0.2-0.1,0.3-0.1
	C109.9,244.2,109.7,243.9,109.5,243.7 M28,224.1c0.1,0.2,0.3,0.4,0.4,0.6c0.1-0.1,0.3-0.4,0.2-0.4C28.5,224.1,28.3,224,28,224.1
	 M12,192.7c0,0.3,0,0.5,0,0.8c0.1,0,0.4-0.1,0.3-0.1C12.4,193.1,12.3,192.8,12,192.7 M66.4,198.3c0,0.3-0.1,0.6-0.1,0.9
	c0,0,0.3,0.1,0.4,0.1C66.6,199,66.6,198.7,66.4,198.3 M10.6,116.8c0,0.2,0,0.3,0,0.5c0.2-0.2,0.4-0.4,0.6-0.6
	C11.1,116.7,10.9,116.7,10.6,116.8 M65.3,197.5c0.2,0.1,0.4,0.2,0.5,0.2c0-0.2-0.1-0.4-0.1-0.6C65.6,197.2,65.4,197.3,65.3,197.5
	 M100,228.8c0.2,0.1,0.5,0.2,0.7,0.3c0-0.2,0-0.4,0-0.6C100.6,228.6,100.4,228.6,100,228.8 M116.2,235c0,0.2,0,0.3,0,0.5
	c0.2-0.2,0.4-0.4,0.6-0.6C116.6,234.8,116.5,234.8,116.2,235 M6.8,129.5c0.1-0.2,0.2-0.4,0.2-0.5c-0.2,0-0.4,0.1-0.6,0.1
	C6.5,129.3,6.6,129.5,6.8,129.5 M42.3,237.3c-0.1-0.3-0.2-0.5-0.3-0.8c-0.1,0.1-0.3,0.1-0.4,0.2C41.8,236.9,41.9,237.1,42.3,237.3
	 M115.8,239.8c0,0.2,0.1,0.4,0.1,0.6c0.2-0.1,0.4-0.2,0.6-0.3C116.3,240,116.1,239.8,115.8,239.8 M4.3,159.5
	c-0.1-0.2-0.1-0.5-0.2-0.7C4,158.9,3.9,159,3.8,159C3.9,159.2,4,159.4,4.3,159.5 M71.4,89.9c0,0.2,0.1,0.3,0.1,0.5
	c0.2-0.1,0.3-0.1,0.5-0.2C71.9,90.1,71.8,90,71.4,89.9 M45.2,239.2c0.2,0,0.4,0,0.5,0c-0.1-0.2-0.2-0.3-0.2-0.5
	C45.3,238.8,45.2,238.9,45.2,239.2 M94.2,227.1c0,0.3,0,0.5,0,0.8c0,0,0.2,0,0.2,0C94.4,227.6,94.4,227.4,94.2,227.1 M55.7,157.2
	c0-0.3,0-0.5,0-0.8c0,0-0.2,0-0.2,0C55.4,156.7,55.4,156.9,55.7,157.2 M58.5,179.2c0,0.3,0,0.5,0,0.8c0,0,0.2,0,0.2,0
	C58.8,179.7,58.8,179.4,58.5,179.2 M57.5,126.5c0.2-0.2,0.4-0.4,0.7-0.6c-0.1-0.1-0.1-0.1-0.2-0.2C57.8,126,57.6,126.2,57.5,126.5
	 M52.9,150c0.1,0.2,0.1,0.4,0.2,0.7c0.1-0.1,0.2-0.2,0.4-0.2C53.3,150.2,53.2,150,52.9,150 M54.2,130.3c0.2,0,0.3,0,0.5,0
	c-0.1-0.2-0.2-0.4-0.4-0.6C54.3,129.9,54.2,130,54.2,130.3 M64.6,103.2c0.1-0.2,0.2-0.5,0.3-0.7c-0.1,0-0.4,0-0.4,0
	C64.4,102.7,64.4,102.9,64.6,103.2 M69.1,95.8c-0.1-0.2-0.1-0.4-0.2-0.7c-0.1,0.1-0.2,0.2-0.4,0.2C68.8,95.5,68.9,95.7,69.1,95.8
	 M89.8,71.7c0.1,0.1,0.2,0.3,0.3,0.4c0.1-0.2,0.1-0.3,0.2-0.5C90.2,71.5,90,71.4,89.8,71.7 M49.1,67.9c0,0.3,0,0.5,0,0.8
	c0,0,0.2,0,0.2,0C49.4,68.4,49.4,68.1,49.1,67.9 M129.9,232.7c0.3,0,0.5,0,0.8,0c0,0,0-0.2,0-0.2
	C130.4,232.5,130.2,232.5,129.9,232.7 M48.8,66c-0.2,0.1-0.4,0.1-0.7,0.2c0.1,0.1,0.2,0.2,0.2,0.4C48.6,66.4,48.8,66.3,48.8,66
	 M65.9,249.6c-0.2,0-0.4,0-0.5,0c0,0.1,0.1,0.2,0.1,0.4C65.6,249.9,65.8,249.8,65.9,249.6 M110.1,245.7c-0.1,0.1-0.2,0.3-0.4,0.4
	c0.1,0.1,0.3,0.2,0.4,0.3C110.2,246.2,110.2,246,110.1,245.7 M54.6,143c0,0.2,0,0.3,0,0.5c0.1-0.1,0.3-0.1,0.4-0.2
	C54.9,143.2,54.8,143.1,54.6,143 M54.7,64.3c0-0.2,0-0.4,0-0.5c-0.1,0-0.2,0.1-0.4,0.1C54.4,64.1,54.5,64.3,54.7,64.3 M85.8,255.1
	c-0.1-0.2-0.1-0.5-0.2-0.7c0,0-0.1,0-0.2,0C85.4,254.7,85.5,254.9,85.8,255.1 M64.3,98.5c0.2,0,0.4,0,0.5,0c0-0.1-0.1-0.2-0.1-0.4
	C64.5,98.2,64.3,98.3,64.3,98.5 M69.7,208.6c0-0.2,0-0.4,0-0.5c-0.1,0-0.2,0.1-0.4,0.1C69.4,208.4,69.5,208.6,69.7,208.6
	 M62.6,198.2c0,0.2,0,0.4,0,0.5c0.1,0,0.2-0.1,0.4-0.1C62.9,198.4,62.8,198.2,62.6,198.2 M75.7,81.6c0.2-0.1,0.3-0.3,0.5-0.4
	C76.1,81.1,76.1,81,76,81C75.9,81.1,75.8,81.2,75.7,81.6z"/>
<path d="M245.1,5.5c0.1-1.5,0.1-2.9,0.3-4.3c0.1-1,0.8-1.3,1.7-1.2c1,0.1,0.6,0.9,0.6,1.4c0.2,2.9,0.6,5.8,0.5,8.7
	c-0.1,3.1-0.7,6.2-1,9.3c-0.1,0.6,0,1.3,0,2c-0.1,1.5-0.3,2.9-0.5,4.4c0,0.2-0.3,0.5-0.4,0.5c-0.4-0.2-0.8-0.4-1.2-0.6
	c-0.2-0.1-0.3-0.4-0.5-0.6c-0.1,0.3-0.3,0.5-0.3,0.8c0,0.2,0.4,0.4,0.5,0.6c0.3,0.5,0.7,0.9,1,1.4c0,0-0.1,0.3-0.2,0.3
	c-0.8,0.3-1,0.7-0.7,1.5c0.1,0.2,0.3,0.4,0.3,0.5c0,0.8-0.1,1.5-0.1,2.3c-0.4-0.4-0.7-0.8-1.1-1.2c-1.7-1.7-1.6-3.8-1.4-5.9
	c0.1-1.6,0.5-3.3,0.8-4.9c0.3-1.9,0.7-3.8,1-5.7C244.9,11.7,245.4,8.7,245.1,5.5 M246.7,16.4c-0.1-0.4-0.1-0.8-0.2-1.2
	c-0.3,0.2-0.6,0.5-0.9,0.7c-1.4,1.1-0.3,2.8-1,4.2c-0.1,0.2,0.5,0.6,0.7,1c0.1,0.1,0.1,0.4,0.1,0.5c0,0.7-0.1,1.3,0,2
	c0,0.2,0.5,0.3,0.7,0.5c0.1-0.2,0.3-0.5,0.3-0.7c-0.2-1.6-0.5-3.3-0.8-4.9c0-0.2-0.1-0.4,0-0.6C246,17.5,246.3,17,246.7,16.4
	 M246.6,10.5c0,0.8-0.1,1.5-0.1,2.3c0,0.1,0.2,0.3,0.3,0.3c0.2,0,0.5-0.1,0.5-0.2C247.1,12.1,247,11.3,246.6,10.5z"/>
<path d="M237.4,37.9c-1.7-1.9-2.9-3.9-3.5-6.4c-0.4-1.7-1.4-3.2-2.2-4.8c-0.7-1.5-0.4-2.3,1.3-2.3c2-0.1,1.9,0,2.8,1.9
	c0.6,1.2,1.5,2.4,2.5,3.3c1.4,1.2,1.6,2.7,2,4.3c0.1,0.6,0.1,1.2-0.7,1.4c-1.2,0.3-1,1.2-0.6,2c0.1,0.3,0.4,0.5,0.5,0.8
	c0.1,0.3,0,0.6,0,0.8c-0.2-0.1-0.5-0.1-0.7-0.2C238.2,38.5,237.8,38.3,237.4,37.9 M233.8,26.7c0.1-0.1,0.1-0.1,0.2-0.2
	c0.2-0.2,0.5-0.5,0.7-0.7c-0.2-0.1-0.5-0.4-0.7-0.4c-0.4,0.1-0.8,0.4-1.1,0.7C233.1,26.3,233.3,26.5,233.8,26.7 M234,29.1
	c0.3,0.1,0.6,0.3,0.9,0.4c-0.2-0.3-0.3-0.6-0.5-0.9c-0.1-0.2-0.3-0.3-0.5-0.4c-0.1-0.1-0.3-0.2-0.4-0.4c0.1,0.2,0.1,0.4,0.2,0.6
	C233.7,28.6,233.8,28.8,234,29.1z"/>
<path d="M225.2,23.1c-0.4,0.7-0.7,0.5-0.8-0.1c-0.3-1.2-0.6-2.4-0.8-3.6c-0.1-0.7-0.3-1.5-0.2-2.2c0.2-2.1-0.6-3.9-1.1-5.8
	c-0.5-1.7-0.6-3.4-0.7-5.2c0-0.4,0.6-1.1,0.9-1.1c0.6,0.1,1.4,0.4,1.6,0.9c0.9,2.1,1.7,4.2,2.4,6.3c0.6,2.2,1.1,4.4,1.5,6.7
	c0.1,0.8-0.1,1.6-0.2,2.5c0,0.1-0.4,0.4-0.5,0.3c-0.2-0.1-0.4-0.3-0.5-0.5c-0.1-0.4-0.1-0.9,0-1.3c0.1-1.3,0-2.4-1.2-3.2
	c-0.3-0.2-0.5-1.1-0.4-1.3c1.1-1.2,0.1-2.4-0.1-3.5c-0.3-1.5-1-3-1.5-4.5c-0.1-0.3-0.4-0.6-0.6-0.8c-0.1,0.3-0.3,0.8-0.2,1
	c0.4,0.9,0.7,1.7,0.3,2.7c-0.1,0.2,0,0.6,0.2,0.8c1.5,1.3,1.1,3,1,4.6c0,0.8,0.1,1.5,0.2,2.3C224.7,19.7,225,21.3,225.2,23.1z"/>
<path d="M246.2,40.1c-0.2,0.7-0.4,1.2-0.5,1.7c-0.1,0.6-0.3,1.2-0.2,1.9c0.1,0.9,0.3,1.7,0.5,2.5c0,0.1-0.1,0.4-0.1,0.4
	c-0.3,0-0.7,0-1-0.2c-1-0.7-1.5-2.5-1.1-3.7c0.3-1.2,1.2-2.4,0.7-3.8c-0.1-0.3,0.5-0.8,0.7-1.1c0.3,0.3,0.6,0.7,0.8,1
	C246.1,39.1,246.1,39.6,246.2,40.1z"/>
<path d="M233.7,53c0.2,0.6,0.3,1.2,0.5,1.9c0,0.1,0.2,0.2,0.3,0.2c0.2,0,0.5,0,0.7,0c-0.2,0.3-0.3,0.9-0.5,1c-0.3,0.1-1-0.2-1-0.4
	C233.6,54.8,233.6,53.9,233.7,53z"/>
<path d="M113.2,60.2c0.7-0.7,1.2-0.1,1.7,0.4c0.1,0.1,0,0.3-0.1,0.4c-0.1,0.1-0.3,0.1-0.4,0C114,60.8,113.6,60.5,113.2,60.2z"/>
<path d="M58.9,159c0,0.2-0.1,0.4-0.1,0.5c-0.2-0.1-0.7-0.3-0.7-0.4c0.1-0.4,0.3-0.8,0.5-1.2c0,0,0.3,0,0.3,0
	C59,158.2,59,158.6,58.9,159z"/>
<path d="M219,126.3c-0.5,0-1,0-1.6-0.2c0,0,0-0.4,0.1-0.6C218,125.7,218.5,125.9,219,126.3z"/>
<path d="M392.7,180.2c0-0.5,0-0.8,0-1.2c0.2,0.1,0.6,0.3,0.6,0.5C393.4,179.8,393.5,180.4,392.7,180.2z"/>
<path d="M233.9,67.1c-0.3-0.2-0.5-0.4-0.6-0.5c0.3-0.1,0.6-0.2,0.9-0.4C234.1,66.5,234.1,66.8,233.9,67.1z"/>
<path d="M225.4,34.1c0.3,0.3,0.5,0.5,0.8,0.7c-0.2,0-0.5,0.2-0.7,0.1C225.2,34.8,224.8,34.5,225.4,34.1z"/>
<path d="M325.9,199.5c0.3-0.2,0.7-0.3,1.1-0.4c0,0,0.1,0.2,0.1,0.3c0,0.1-0.2,0.2-0.3,0.2C326.5,199.6,326.2,199.6,325.9,199.5z"/>
<path d="M270.2,129.9c-0.2-0.3-0.3-0.6-0.4-0.9c0.1,0,0.4,0,0.4,0C270.3,129.3,270.3,129.5,270.2,129.9z"/>
<path d="M88.1,217.4c0,0.3-0.1,0.6-0.2,0.9c-0.1-0.1-0.2-0.2-0.4-0.2C87.7,217.7,87.8,217.5,88.1,217.4z"/>
<path d="M435.1,138.1c-0.2-0.1-0.4-0.3-0.6-0.5c0.2-0.1,0.3-0.2,0.5-0.3C435,137.6,435.1,137.8,435.1,138.1z"/>
<path d="M58.3,155c-0.3,0-0.5,0-0.7,0c0.1-0.2,0.2-0.4,0.3-0.6C58.1,154.6,58.3,154.8,58.3,155z"/>
<path d="M311.7,197.8c0.2,0.1,0.4,0.3,0.5,0.4c-0.3,0-0.6,0-1,0C311.3,198.1,311.4,197.9,311.7,197.8z"/>
<path d="M229.4,38.6c0.1,0.2,0.2,0.4,0.3,0.6c-0.2,0-0.4-0.1-0.6-0.1C229.1,38.9,229.2,38.7,229.4,38.6z"/>
<path d="M345.1,128.4c-0.1,0.3-0.2,0.5-0.4,0.7c-0.1-0.2-0.2-0.3-0.3-0.5C344.6,128.5,344.8,128.4,345.1,128.4z"/>
<path d="M84.1,82c-0.1,0.2-0.3,0.4-0.4,0.5c0-0.2-0.1-0.4-0.1-0.5C83.7,81.9,83.9,81.9,84.1,82z"/>
<path d="M313,197.6c0.3,0,0.5,0,0.7,0c-0.1,0.1-0.2,0.3-0.3,0.4C313.3,197.9,313.1,197.8,313,197.6z"/>
<path d="M412,185.2c0.2-0.2,0.5-0.4,0.7-0.5c0,0.3,0.1,0.7,0.1,1c0,0.1-0.3,0.2-0.4,0.3C412.2,185.8,412.1,185.6,412,185.2z"/>
<path d="M58.3,70.2c-0.9,0.5-1.7,0.9-2.5,1.4c-0.1,0-0.3-0.2-0.3-0.2c0.1-0.3,0.2-0.9,0.3-1C56.7,70.2,57.6,70.2,58.3,70.2z"/>
<path d="M65.5,66.6c-0.6,0.2-1.1,0.3-1.5,0.5c-0.8,0.4-1-0.3-1.4-0.6c0.1-0.1,0.2-0.4,0.4-0.4c0.8-0.1,1.5-0.2,2.3-0.3
	c0.2,0,0.5,0.3,0.7,0.4C65.9,66.3,65.7,66.4,65.5,66.6z"/>
<path d="M52.1,70.2c0.8,0.5,1.6,1.2,2.3,1.8c0.1,0.1,0,0.3-0.1,0.5c-0.2-0.1-0.4-0.1-0.5-0.2C53.3,71.7,52.7,71,52.1,70.2z"/>
<path d="M8.4,164.8c-0.2-0.8-0.2-1.5-0.2-2.3c0-0.2,0.1-0.4,0.2-0.6c0.2,0.2,0.5,0.4,0.5,0.6C8.8,163.2,8.6,164,8.4,164.8z"/>
<path d="M38.6,229c0.7,0.4,1.3,0.8,2,1.3c0.1,0,0,0.4,0,0.4c-0.3,0-0.7,0.1-0.8-0.1C39.2,230.2,38.9,229.6,38.6,229z"/>
<path d="M76.5,63.4c-0.2-0.5-0.3-0.9-0.4-1.4c0-0.1,0.2-0.3,0.3-0.5c0.3,0.3,0.8,0.6,0.9,1C77.4,63.1,77.4,63.8,76.5,63.4z"/>
<path d="M94.6,61.1c-0.3,0.2-0.5,0.3-0.8,0.4c-0.1-0.3-0.3-0.7-0.2-1c0.1-0.2,0.5-0.4,0.8-0.6C94.5,60.4,94.6,60.7,94.6,61.1z"/>
<path d="M68.2,65.3c0.1-0.1,0.1-0.1,0.2-0.2c0.3-0.3,0.6-0.6,0.9-1c0.1,0.2,0.3,0.5,0.2,0.6c-0.3,0.4-0.7,0.7-1.1,1
	C68.2,65.6,68.2,65.5,68.2,65.3z"/>
<path d="M30.3,219.6c0.1,0.1,0.2,0.2,0.2,0.2c0.1,0.3,0.3,0.5,0.4,0.8c-0.2,0-0.5,0-0.6-0.1c-0.3-0.3-0.5-0.6-0.8-1
	C29.8,219.6,30,219.5,30.3,219.6z"/>
<path d="M13.6,184.2c0.1,0.2,0.1,0.2,0.1,0.3c-0.1,0.4-0.2,0.8-0.4,1.1c-0.1-0.1-0.4-0.3-0.4-0.4C13,184.9,13.3,184.5,13.6,184.2z"
	/>
<path d="M30.2,88.9c-1,0.4-0.5-0.4-0.6-0.6c0-0.2,0.2-0.5,0.3-0.8c0.1,0.2,0.3,0.4,0.4,0.7C30.4,88.4,30.3,88.6,30.2,88.9z"/>
<path d="M11.3,179.4c0.2-0.6,0.5-1.1,0.8-1.6c0-0.1,0.3-0.1,0.4,0c0,0,0.1,0.3,0,0.3C12.2,178.5,11.8,179,11.3,179.4z"/>
<path d="M10.9,173.6c-0.2,0-0.3-0.1-0.3-0.2c0-0.4-0.1-0.8-0.1-1.2c0,0,0.2,0,0.3-0.1C10.9,172.6,11,173.1,10.9,173.6z"/>
<path d="M28,91.4c0.2-0.2,0.4-0.3,0.5-0.4c0.1,0.3,0.3,0.5,0.2,0.8c0,0.2-0.4,0.3-0.6,0.4C28.1,92,28.1,91.8,28,91.4z"/>
<path d="M17.4,193.8c0.1,0.4,0.1,0.8,0.1,1.1c-0.1-0.1-0.4-0.3-0.4-0.4C17,194.2,17.2,194,17.4,193.8z"/>
<path d="M15.2,189.9c0.2,0.3,0.3,0.5,0.4,0.8c0,0.1-0.3,0.2-0.5,0.2C15.1,190.6,15.1,190.3,15.2,189.9z"/>
<path d="M62.8,67.7c-0.2,0.4-0.5,0.7-0.8,1c-0.1-0.1-0.1-0.1-0.2-0.2C62.1,68.2,62.4,67.9,62.8,67.7z"/>
<path d="M8.4,160.3c0.1-0.3,0.3-0.6,0.4-0.8c0.1,0.1,0.2,0.2,0.3,0.2C8.9,160,8.6,160.2,8.4,160.3z"/>
<path d="M35.2,83.3c-0.1-0.4-0.2-0.7-0.2-1c0.2,0,0.4,0,0.6,0C35.4,82.7,35.3,83,35.2,83.3z"/>
<path d="M13.6,123.2c-0.2,0.1-0.5,0.3-0.7,0.3c-0.1,0-0.1-0.3-0.2-0.5C12.9,123,13.2,123.1,13.6,123.2z"/>
<path d="M83.4,246.7c0.1-0.3,0.2-0.5,0.4-0.7c0.1,0.2,0.2,0.4,0.3,0.6C83.8,246.7,83.6,246.7,83.4,246.7z"/>
<path d="M26,93.7c0.2-0.2,0.4-0.3,0.6-0.4c0,0.2,0,0.5,0.1,0.7C26.5,93.9,26.3,93.9,26,93.7z"/>
<path d="M73.4,62.7c0.3,0.1,0.5,0.2,0.7,0.4c-0.2,0.1-0.4,0.2-0.6,0.3C73.4,63.2,73.4,63,73.4,62.7z"/>
<path d="M9.8,170.3c0.2,0.2,0.3,0.6,0.4,0.9c-0.1,0-0.2,0.1-0.3,0.1C9.8,171,9.7,170.7,9.8,170.3z"/>
<path d="M47.4,74.2c0-0.3,0-0.5,0.1-0.8c0.1,0.1,0.3,0.1,0.4,0.2C47.8,73.8,47.7,74,47.4,74.2z"/>
<path d="M21.5,99.8c0.1-0.3,0.2-0.4,0.3-0.5c0.1,0.2,0.1,0.3,0.2,0.5C21.8,99.9,21.7,99.9,21.5,99.8z"/>
<path d="M16.3,113.2c0.1,0.2,0.1,0.4,0.1,0.7c-0.1,0-0.2,0-0.3,0C16.1,113.7,16.2,113.5,16.3,113.2z"/>
<path d="M35,225.1c-0.1,0.1-0.3,0.2-0.3,0.2c-0.1-0.2-0.2-0.4-0.3-0.5C34.6,224.8,34.8,224.9,35,225.1z"/>
</svg>
